<?xml version="1.0" encoding="UTF-8" standalone="no"?>
<!-- Created with Inkscape (http://www.inkscape.org/) -->

<svg
   xmlns:osb="http://www.openswatchbook.org/uri/2009/osb"
   xmlns:dc="http://purl.org/dc/elements/1.1/"
   xmlns:cc="http://creativecommons.org/ns#"
   xmlns:rdf="http://www.w3.org/1999/02/22-rdf-syntax-ns#"
   xmlns:svg="http://www.w3.org/2000/svg"
   xmlns="http://www.w3.org/2000/svg"
   xmlns:xlink="http://www.w3.org/1999/xlink"
   xmlns:sodipodi="http://sodipodi.sourceforge.net/DTD/sodipodi-0.dtd"
   xmlns:inkscape="http://www.inkscape.org/namespaces/inkscape"
   id="svg3004"
   version="1.1"
   inkscape:version="0.48.5 r10040"
   width="1920"
   height="1080"
   xml:space="preserve"
   sodipodi:docname="netbsd.svg"
   inkscape:export-filename="cuckoo-os-gray-netbsd.png"
   inkscape:export-xdpi="90"
   inkscape:export-ydpi="90"><metadata
     id="metadata3010"><rdf:RDF><cc:Work
         rdf:about=""><dc:format>image/svg+xml</dc:format><dc:type
           rdf:resource="http://purl.org/dc/dcmitype/StillImage" /><dc:title></dc:title></cc:Work></rdf:RDF></metadata><defs
     id="defs3008"><linearGradient
       inkscape:collect="always"
       id="linearGradient3787"><stop
         style="stop-color:#000000;stop-opacity:1;"
         offset="0"
         id="stop3789" /><stop
         style="stop-color:#000000;stop-opacity:0;"
         offset="1"
         id="stop3791" /></linearGradient><linearGradient
       inkscape:collect="always"
       id="linearGradient5303"><stop
         style="stop-color:#f26711;stop-opacity:1;"
         offset="0"
         id="stop5305" /><stop
         style="stop-color:#f26711;stop-opacity:0;"
         offset="1"
         id="stop5307" /></linearGradient><linearGradient
       inkscape:collect="always"
       id="linearGradient5267"><stop
         style="stop-color:#666666;stop-opacity:1;"
         offset="0"
         id="stop5269" /><stop
         style="stop-color:#666666;stop-opacity:0;"
         offset="1"
         id="stop5271" /></linearGradient><linearGradient
       id="linearGradient5251"
       osb:paint="solid"><stop
         style="stop-color:#666666;stop-opacity:1;"
         offset="0"
         id="stop5253" /></linearGradient><radialGradient
       inkscape:collect="always"
       xlink:href="#linearGradient3787-8"
       id="radialGradient3795-9"
       cx="-318.88889"
       cy="-292.91666"
       fx="-318.88889"
       fy="-292.91666"
       r="125.55556"
       gradientTransform="matrix(1,0,0,1.0619468,0,18.145264)"
       gradientUnits="userSpaceOnUse" /><linearGradient
       inkscape:collect="always"
       id="linearGradient3787-8"><stop
         style="stop-color:#000000;stop-opacity:1;"
         offset="0"
         id="stop3789-9" /><stop
         style="stop-color:#000000;stop-opacity:0;"
         offset="1"
         id="stop3791-4" /></linearGradient><radialGradient
       r="125.55556"
       fy="-292.91666"
       fx="-318.88889"
       cy="-292.91666"
       cx="-318.88889"
       gradientTransform="matrix(1,0,0,1.0619468,0,18.145264)"
       gradientUnits="userSpaceOnUse"
       id="radialGradient3812"
       xlink:href="#linearGradient3787-8"
       inkscape:collect="always" /><radialGradient
       inkscape:collect="always"
       xlink:href="#linearGradient5303"
       id="radialGradient3847"
       gradientUnits="userSpaceOnUse"
       gradientTransform="matrix(1,0,0,0.93388423,0,-24.215756)"
       cx="-163.14774"
       cy="-366.26291"
       fx="-163.14774"
       fy="-366.26291"
       r="144.09399" /><radialGradient
       inkscape:collect="always"
       xlink:href="#linearGradient3787"
       id="radialGradient3849"
       gradientUnits="userSpaceOnUse"
       gradientTransform="matrix(1,0,0,1.0619468,0,18.145264)"
       cx="-318.88889"
       cy="-292.91666"
       fx="-318.88889"
       fy="-292.91666"
       r="125.55556" /><linearGradient
       inkscape:collect="always"
       xlink:href="#linearGradient5267"
       id="linearGradient3851"
       gradientUnits="userSpaceOnUse"
       x1="-395.36533"
       y1="-212.64204"
       x2="4.7634277"
       y2="-212.64204" /><linearGradient
       inkscape:collect="always"
       xlink:href="#linearGradient5267"
       id="linearGradient7048"
       gradientUnits="userSpaceOnUse"
       x1="-395.36533"
       y1="-212.64204"
       x2="4.7634277"
       y2="-212.64204" /><radialGradient
       inkscape:collect="always"
       xlink:href="#linearGradient3787"
       id="radialGradient7050"
       gradientUnits="userSpaceOnUse"
       gradientTransform="matrix(1,0,0,1.0619468,0,18.145264)"
       cx="-318.88889"
       cy="-292.91666"
       fx="-318.88889"
       fy="-292.91666"
       r="125.55556" /><radialGradient
       inkscape:collect="always"
       xlink:href="#linearGradient5303"
       id="radialGradient7052"
       gradientUnits="userSpaceOnUse"
       gradientTransform="matrix(1,0,0,0.93388423,0,-24.215756)"
       cx="-163.14774"
       cy="-366.26291"
       fx="-163.14774"
       fy="-366.26291"
       r="144.09399" /><radialGradient
       inkscape:collect="always"
       xlink:href="#linearGradient5303"
       id="radialGradient7070"
       gradientUnits="userSpaceOnUse"
       gradientTransform="matrix(1,0,0,0.93388423,0,-24.215756)"
       cx="-163.14774"
       cy="-366.26291"
       fx="-163.14774"
       fy="-366.26291"
       r="144.09399" /><radialGradient
       inkscape:collect="always"
       xlink:href="#linearGradient3787"
       id="radialGradient7072"
       gradientUnits="userSpaceOnUse"
       gradientTransform="matrix(1,0,0,1.0619468,0,18.145264)"
       cx="-318.88889"
       cy="-292.91666"
       fx="-318.88889"
       fy="-292.91666"
       r="125.55556" /><linearGradient
       inkscape:collect="always"
       xlink:href="#linearGradient5267"
       id="linearGradient7074"
       gradientUnits="userSpaceOnUse"
       x1="-395.36533"
       y1="-212.64204"
       x2="4.7634277"
       y2="-212.64204" /><linearGradient
       inkscape:collect="always"
       xlink:href="#linearGradient5267-2"
       id="linearGradient3045"
       gradientUnits="userSpaceOnUse"
       x1="-395.36533"
       y1="-212.64204"
       x2="4.7634277"
       y2="-212.64204" /><linearGradient
       inkscape:collect="always"
       id="linearGradient5267-2"><stop
         style="stop-color:#666666;stop-opacity:1;"
         offset="0"
         id="stop5269-5" /><stop
         style="stop-color:#666666;stop-opacity:0;"
         offset="1"
         id="stop5271-0" /></linearGradient><radialGradient
       inkscape:collect="always"
       xlink:href="#linearGradient5303-0"
       id="radialGradient3047"
       gradientUnits="userSpaceOnUse"
       gradientTransform="matrix(1,0,0,0.93388423,0,-24.215756)"
       cx="-163.14774"
       cy="-366.26291"
       fx="-163.14774"
       fy="-366.26291"
       r="144.09399" /><linearGradient
       inkscape:collect="always"
       id="linearGradient5303-0"><stop
         style="stop-color:#f26711;stop-opacity:1;"
         offset="0"
         id="stop5305-0" /><stop
         style="stop-color:#f26711;stop-opacity:0;"
         offset="1"
         id="stop5307-7" /></linearGradient><radialGradient
       inkscape:collect="always"
       xlink:href="#linearGradient3787-6"
       id="radialGradient3049"
       gradientUnits="userSpaceOnUse"
       gradientTransform="matrix(1,0,0,1.0619468,0,18.145264)"
       cx="-318.88889"
       cy="-292.91666"
       fx="-318.88889"
       fy="-292.91666"
       r="125.55556" /><linearGradient
       inkscape:collect="always"
       id="linearGradient3787-6"><stop
         style="stop-color:#000000;stop-opacity:1;"
         offset="0"
         id="stop3789-5" /><stop
         style="stop-color:#000000;stop-opacity:0;"
         offset="1"
         id="stop3791-42" /></linearGradient><radialGradient
       r="125.55556"
       fy="-292.91666"
       fx="-318.88889"
       cy="-292.91666"
       cx="-318.88889"
       gradientTransform="matrix(1,0,0,1.0619468,0,18.145264)"
       gradientUnits="userSpaceOnUse"
       id="radialGradient3087"
       xlink:href="#linearGradient3787-6"
       inkscape:collect="always" /><radialGradient
       inkscape:collect="always"
       xlink:href="#linearGradient3787-3"
       id="radialGradient3816"
       gradientUnits="userSpaceOnUse"
       gradientTransform="matrix(1,0,0,1.0619468,0,18.145264)"
       cx="-318.88889"
       cy="-292.91666"
       fx="-318.88889"
       fy="-292.91666"
       r="125.55556" /><linearGradient
       inkscape:collect="always"
       id="linearGradient3787-3"><stop
         style="stop-color:#000000;stop-opacity:1;"
         offset="0"
         id="stop3789-4" /><stop
         style="stop-color:#000000;stop-opacity:0;"
         offset="1"
         id="stop3791-0" /></linearGradient><radialGradient
       inkscape:collect="always"
       xlink:href="#linearGradient5303-3"
       id="radialGradient3814"
       gradientUnits="userSpaceOnUse"
       gradientTransform="matrix(1,0,0,0.93388423,0,-24.215756)"
       cx="-163.14774"
       cy="-366.26291"
       fx="-163.14774"
       fy="-366.26291"
       r="144.09399" /><linearGradient
       inkscape:collect="always"
       id="linearGradient5303-3"><stop
         style="stop-color:#f26711;stop-opacity:1;"
         offset="0"
         id="stop5305-6" /><stop
         style="stop-color:#f26711;stop-opacity:0;"
         offset="1"
         id="stop5307-5" /></linearGradient><linearGradient
       inkscape:collect="always"
       xlink:href="#linearGradient5267-4"
       id="linearGradient3812"
       gradientUnits="userSpaceOnUse"
       x1="-395.36533"
       y1="-212.64204"
       x2="4.7634277"
       y2="-212.64204" /><linearGradient
       id="linearGradient5267-4"><stop
         style="stop-color:#646464;stop-opacity:1;"
         offset="0"
         id="stop5269-2" /><stop
         style="stop-color:#666666;stop-opacity:0;"
         offset="1"
         id="stop5271-4" /></linearGradient><linearGradient
       inkscape:collect="always"
       xlink:href="#linearGradient5267-4"
       id="linearGradient3832"
       gradientUnits="userSpaceOnUse"
       x1="-395.36533"
       y1="-212.64204"
       x2="4.7634277"
       y2="-212.64204" /><radialGradient
       inkscape:collect="always"
       xlink:href="#linearGradient5303-3"
       id="radialGradient3834"
       gradientUnits="userSpaceOnUse"
       gradientTransform="matrix(1,0,0,0.93388423,0,-24.215756)"
       cx="-163.14774"
       cy="-366.26291"
       fx="-163.14774"
       fy="-366.26291"
       r="144.09399" /><radialGradient
       inkscape:collect="always"
       xlink:href="#linearGradient3787-3"
       id="radialGradient3836"
       gradientUnits="userSpaceOnUse"
       gradientTransform="matrix(1,0,0,1.0619468,0,18.145264)"
       cx="-318.88889"
       cy="-292.91666"
       fx="-318.88889"
       fy="-292.91666"
       r="125.55556" /><radialGradient
       inkscape:collect="always"
       xlink:href="#linearGradient3787-3"
       id="radialGradient3855"
       gradientUnits="userSpaceOnUse"
       gradientTransform="matrix(1,0,0,1.0619468,0,18.145264)"
       cx="-318.88889"
       cy="-292.91666"
       fx="-318.88889"
       fy="-292.91666"
       r="125.55556" /><radialGradient
       inkscape:collect="always"
       xlink:href="#linearGradient5303-3"
       id="radialGradient3857"
       gradientUnits="userSpaceOnUse"
       gradientTransform="matrix(1,0,0,0.93388423,0,-24.215756)"
       cx="-163.14774"
       cy="-366.26291"
       fx="-163.14774"
       fy="-366.26291"
       r="144.09399" /><linearGradient
       inkscape:collect="always"
       xlink:href="#linearGradient5267-4"
       id="linearGradient3859"
       gradientUnits="userSpaceOnUse"
       x1="-395.36533"
       y1="-212.64204"
       x2="4.7634277"
       y2="-212.64204" /></defs><sodipodi:namedview
     pagecolor="#ffffff"
     bordercolor="#666666"
     borderopacity="1"
     objecttolerance="10"
     gridtolerance="10"
     guidetolerance="10"
     inkscape:pageopacity="0"
     inkscape:pageshadow="2"
     inkscape:window-width="1920"
     inkscape:window-height="1036"
     id="namedview3006"
     showgrid="false"
     inkscape:zoom="0.7"
     inkscape:cx="973.52135"
     inkscape:cy="535.92469"
     inkscape:window-x="0"
     inkscape:window-y="25"
     inkscape:window-maximized="1"
     inkscape:current-layer="g3012" /><g
     id="g3012"
     inkscape:groupmode="layer"
     inkscape:label="ink_ext_XXXXXX"
     transform="matrix(1.25,0,0,-1.25,0,1080)"><rect
       style="fill:#484848;fill-opacity:1;stroke:none"
       id="rect3036"
       width="1536"
       height="864"
       x="0"
       y="-864"
       transform="scale(1,-1)" /><g
       id="g3838"
       transform="matrix(0.88888869,0,0,0.88888869,85.333477,48.00006)"><path
         transform="matrix(1.0877698,0,0,-1.008,913.29496,91.62002)"
         d="m -34.285713,-337.67856 c 0,59.17337 -44.451728,107.14286 -99.285717,107.14286 -54.83398,0 -99.28571,-47.96949 -99.28571,-107.14286 0,-59.17337 44.45173,-107.14286 99.28571,-107.14286 54.833989,0 99.285717,47.96949 99.285717,107.14286 z"
         sodipodi:ry="107.14286"
         sodipodi:rx="99.285713"
         sodipodi:cy="-337.67856"
         sodipodi:cx="-133.57143"
         id="path3219"
         style="fill:#323232;fill-opacity:1;fill-rule:nonzero;stroke:none"
         sodipodi:type="arc" /><path
         transform="matrix(0,0.86017699,0.81000003,0,1005.2625,706.30089)"
         d="m -193.33333,-292.91666 c 0,73.63797 -56.21314,133.33333 -125.55556,133.33333 -69.34242,0 -125.55555,-59.69536 -125.55555,-133.33333 0,-73.63796 56.21313,-133.33332 125.55555,-133.33332 69.34242,0 125.55556,59.69536 125.55556,133.33332 z"
         sodipodi:ry="133.33333"
         sodipodi:rx="125.55556"
         sodipodi:cy="-292.91666"
         sodipodi:cx="-318.88889"
         id="path5277"
         style="opacity:0.75;fill:url(#radialGradient3855);fill-opacity:1;fill-rule:evenodd;stroke:none"
         sodipodi:type="arc" /><path
         transform="matrix(0,0.74951069,0.80257353,0,1061.9529,554.28097)"
         d="m -19.053741,-366.26291 c 0,74.31936 -64.513079,134.56711 -144.093999,134.56711 -79.58091,0 -144.09399,-60.24775 -144.09399,-134.56711 0,-74.31936 64.51308,-134.56711 144.09399,-134.56711 79.58092,0 144.093999,60.24775 144.093999,134.56711 z"
         sodipodi:ry="134.56711"
         sodipodi:rx="144.09399"
         sodipodi:cy="-366.26291"
         sodipodi:cx="-163.14774"
         id="path5275"
         style="fill:url(#radialGradient3857);fill-opacity:1;fill-rule:evenodd;stroke:none"
         sodipodi:type="arc" /><path
         transform="matrix(0.53982624,0,0,-0.58135134,873.42861,308.38027)"
         d="m 4.7634277,-212.64204 c 0,102.60018 -89.5718727,185.774059 -200.0643777,185.774059 -110.4925,0 -200.06438,-83.173879 -200.06438,-185.774059 0,-102.60019 89.57188,-185.77407 200.06438,-185.77407 110.492505,0 200.0643777,83.17388 200.0643777,185.77407 z"
         sodipodi:ry="185.77406"
         sodipodi:rx="200.06438"
         sodipodi:cy="-212.64204"
         sodipodi:cx="-195.30095"
         id="path3806"
         style="fill:url(#linearGradient3859);fill-opacity:1;fill-rule:evenodd;stroke:none"
         sodipodi:type="arc" /><g
         transform="matrix(0.03148026,0,0,0.0314803,700.00531,380.00854)"
         id="g3014"><path
           inkscape:connector-curvature="0"
           id="path3016"
           style="fill:#777777;fill-opacity:1;fill-rule:nonzero;stroke:none"
           d="m 834,3091.06 c 0,0 -12.27,28.54 -46.871,9.44 -28.77,-15.96 -13.809,-45.43 -13.809,-45.43 l 540.69,-1143.34 131.16,0 -611.182,1179.33" /><path
           inkscape:connector-curvature="0"
           id="path3018"
           style="fill:#777777;fill-opacity:1;fill-rule:nonzero;stroke:none"
           d="m 2368.8,129.32 -409.04,789.41 -176.15,0 410.89,-868.8081 c 0,0 41.41,-81.7735 130.26,-36.5703 88.82,45.1992 44.06,115.9684 44.06,115.9684" /><path
           inkscape:connector-curvature="0"
           id="path3020"
           style="fill:#f26711;fill-opacity:1;fill-rule:nonzero;stroke:none"
           d="m 3876.46,3169.4 c -512.64,246.04 -976.45,128.54 -1495.2,-26.7 -522.23,-156.2 -986.75,-240.74 -1508.58,-27.83 56.851,-101.58 85.308,-152.36 142.19,-253.86 52.22,-93.37 104.51,-186.73 156.75,-280.06 56.87,-101.56 85.3,-152.3 142.18,-253.84 415.48,-117.43 759.56,34.86 1128.77,219.44 443.36,221.52 843.83,420.81 1350.39,305.34 -428.09,214.37 -816.17,161.24 -1263.79,39.8 438.24,223.1 850.84,396.62 1347.29,277.71" /><path
           inkscape:connector-curvature="0"
           id="path3022"
           style="fill:#f26711;fill-opacity:1;fill-rule:nonzero;stroke:none"
           d="m 840.762,1344.47 c 0,-85.64 0,-168.57 2.629,-212.09 -9.2,-15.74 -46.082,-30.3 -77.68,-30.3 -1.332,0 -44.801,67.2 -106.691,143.63 l -304.25,376.73 c -75.051,94.85 -119.84,148.83 -143.551,168.6 -6.571,-13.15 -6.571,-35.53 -6.571,-84.28 l 0,-255.59 c 0,-106.7 5.25,-205.46 19.75,-241.06 11.864,-27.64 42.141,-35.55 76.383,-42.1 l 36.879,-5.3 c 10.52,-10.56 7.899,-38.24 0,-46.07 -71.121,2.57 -123.801,3.95 -176.48,3.95 -48.731,0 -97.4495,-1.38 -147.4886,-3.95 -7.91015,7.83 -10.54296,35.51 0,46.07 l 22.3789,3.96 c 35.5586,7.91 60.5703,15.8 72.4177,43.44 13.172,35.6 18.453,134.36 18.453,241.06 l 0,334.61 c 0,72.42 0,93.48 -9.222,111.93 -9.231,22.4 -28.9807,35.59 -75.0784,44.79 l -36.85935,5.29 c -9.22266,10.54 -7.91016,42.15 5.24995,46.08 61.9102,-2.57 127.7498,-3.93 181.7698,-3.93 44.769,0 82.969,1.32 110.629,3.94 13.191,-59.27 98.789,-159.35 217.308,-300.33 l 110.633,-130.42 c 59.277,-68.5 96.149,-114.56 126.457,-144.9 5.262,13.2 5.262,35.62 5.262,59.28 l 0,181.81 c 0,106.68 -5.262,205.48 -19.77,241.1 -11.859,27.62 -40.82,35.49 -76.379,42.08 l -35.57,5.29 c -10.519,10.54 -7.891,38.19 0,46.08 71.141,-2.57 122.5,-3.93 176.5,-3.93 48.707,0 96.141,1.32 147.508,3.94 7.91,-7.9 10.519,-35.55 0,-46.11 l -23.707,-3.93 c -34.231,-7.93 -59.274,-15.8 -71.141,-43.49 -14.461,-35.55 -19.75,-134.35 -19.75,-241.07 l 0,-314.83" /><path
           inkscape:connector-curvature="0"
           id="path3024"
           style="fill:#f26711;fill-opacity:1;fill-rule:nonzero;stroke:none"
           d="m 1153.67,1490.7 c 18.47,0 39.51,2.67 54.03,11.84 6.58,4.03 9.18,17.21 9.18,30.28 0,43.49 -25,72.49 -69.78,72.49 -55.33,0 -102.73,-52.69 -102.73,-94.82 0,-18.48 18.42,-19.79 60.58,-19.79 l 48.72,0 z m -86.9,-57.95 c -30.29,0 -32.94,-2.61 -32.94,-23.69 0,-98.82 63.23,-194.97 185.7,-194.97 36.89,0 86.94,7.87 122.49,68.49 14.49,2.62 34.25,-7.91 34.25,-30.26 -54.01,-111.99 -151.46,-150.24 -230.49,-150.24 -177.8,0 -273.928,125.19 -273.928,268.77 0,165.98 119.847,295.09 284.468,295.09 136.96,0 210.72,-88.26 210.72,-189.73 0,-25.02 -6.58,-43.46 -47.39,-43.46 l -252.88,0" /><path
           inkscape:connector-curvature="0"
           id="path3026"
           style="fill:#f26711;fill-opacity:1;fill-rule:nonzero;stroke:none"
           d="m 1626.73,1576.31 c -17.11,0 -18.43,-1.28 -18.43,-30.3 l 0,-197.53 c 0,-73.81 0,-155.49 92.19,-155.49 18.44,0 39.5,9.21 55.33,19.74 13.14,-3.92 21.05,-18.4 18.4,-34.22 -36.87,-39.5 -107.98,-76.43 -189.63,-76.43 -109.33,0 -147.51,63.25 -147.51,150.24 l 0,293.69 c 0,27.7 -1.32,30.3 -25.03,30.3 l -40.81,0 c -14.5,5.37 -18.45,31.64 -7.92,40.89 40.82,14.44 77.7,38.19 109.32,59.24 23.7,17.11 56.64,44.75 97.46,102.8 9.2,5.23 32.93,3.88 39.52,-6.62 l 0,-98.81 c 0,-25.01 1.32,-26.33 25.02,-26.33 l 117.23,0 c 6.58,-5.25 10.52,-13.2 10.52,-25.04 0,-14.49 -3.94,-38.16 -17.11,-46.13 l -118.56,0" /><path
           inkscape:connector-curvature="0"
           id="path3028"
           style="fill:#777777;fill-opacity:1;fill-rule:nonzero;stroke:none"
           d="m 2102.36,1343.19 c 0,-102.76 13.18,-167.29 115.93,-167.29 97.46,0 148.81,75.06 148.81,181.78 0,114.61 -65.86,194.94 -192.27,194.94 -72.46,0 -72.46,-1.3 -72.46,-54.03 l 0,-155.38 -0.01,-0.02 z m 0,304.29 c 0,-34.28 1.34,-36.86 69.82,-36.86 113.26,0 155.41,72.4 155.41,151.45 0,114.6 -71.13,171.25 -162.01,171.25 -61.88,0 -63.22,-10.58 -63.22,-68.52 l 0,-217.32 z m -181.76,127.79 c 0,133.01 -2.63,147.47 -57.94,154.1 l -35.57,5.3 c -11.85,6.59 -14.49,46.09 5.28,47.41 100.1,6.57 196.24,11.87 327.97,11.87 126.41,0 210.74,-14.52 268.65,-48.78 56.64,-34.24 90.86,-89.59 90.86,-167.26 0,-110.68 -93.49,-154.14 -134.31,-164.71 -13.19,-2.58 -26.37,-7.89 -26.37,-14.47 0,-3.94 6.62,-7.86 18.48,-10.54 104.04,-22.41 192.26,-90.84 193.59,-218.6 1.33,-121.21 -71.11,-192.36 -154.06,-221.37 -83.01,-28.97 -181.76,-32.92 -262.11,-32.92 -47.4,0 -97.45,5.32 -135.66,5.32 -64.56,0 -129.09,-1.37 -204.14,-3.98 -10.52,7.89 -10.52,42.12 0,46.07 l 38.2,7.92 c 59.25,11.84 67.16,21.07 67.16,139.63 l 0,465.01" /><path
           inkscape:connector-curvature="0"
           id="path3030"
           style="fill:#777777;fill-opacity:1;fill-rule:nonzero;stroke:none"
           d="m 2858.47,1099.5 c -121.14,0 -196.23,34.25 -223.87,50.03 -25.02,28.98 -42.13,123.82 -42.13,213.41 9.2,17.1 39.51,18.45 50.04,3.96 26.33,-85.62 114.55,-206.8 226.52,-206.8 97.44,0 142.25,67.17 142.25,133.01 0,106.69 -100.08,169.92 -179.12,209.43 -94.83,47.48 -197.56,126.46 -198.85,256.91 0,148.83 114.59,251.62 305.55,251.62 43.45,0 97.44,-5.3 150.15,-21.13 17.11,-5.26 28.95,-7.86 44.77,-10.51 10.49,-28.98 23.71,-100.12 23.71,-188.39 -6.6,-15.77 -39.53,-17.11 -51.37,-3.99 -22.4,67.23 -79.06,163.4 -173.88,163.4 -86.9,0 -134.3,-56.67 -134.3,-122.49 0,-60.62 53.94,-115.91 119.8,-150.17 l 86.96,-46.15 c 81.64,-43.46 185.7,-119.84 185.7,-264.74 0,-162.04 -133.07,-267.4 -331.93,-267.4" /><path
           inkscape:connector-curvature="0"
           id="path3032"
           style="fill:#777777;fill-opacity:1;fill-rule:nonzero;stroke:none"
           d="m 3479.68,1359.03 c 0,-72.49 2.65,-119.89 26.33,-147.57 23.75,-26.36 61.91,-38.2 109.33,-38.2 227.83,0 305.55,202.81 305.55,382 0,237.12 -125.12,378.06 -363.52,378.06 -35.5,0 -60.58,-6.59 -68.47,-17.17 -7.91,-10.51 -9.22,-35.53 -9.22,-76.34 l 0,-480.8 0,0.02 z m -188.32,417.55 c 0,125.13 -2.64,150.15 -63.23,156.74 l -25.01,2.61 c -13.15,6.59 -13.15,44.83 2.65,46.15 110.63,6.57 213.34,11.87 352.97,11.87 107.99,0 215.96,-10.62 306.86,-43.5 172.55,-61.9 267.34,-217.34 267.34,-381.97 0,-176.55 -84.28,-318.84 -235.72,-393.9 -89.55,-44.82 -197.58,-61.88 -333.23,-61.88 -61.87,0 -127.79,7.92 -175.17,7.92 -63.24,0 -130.41,-1.37 -205.45,-3.98 -10.53,7.89 -10.53,39.49 0,46.07 l 40.82,6.59 c 59.26,10.52 67.17,19.74 67.17,140.96 l 0,466.32" /><path
           inkscape:connector-curvature="0"
           id="path3034"
           style="fill:#777777;fill-opacity:1;fill-rule:nonzero;stroke:none"
           d="m 4083.45,1892.85 c 0,32.61 11.57,60.48 34.72,83.57 23.14,23.09 51.04,34.65 83.65,34.65 32.6,0 60.47,-11.56 83.56,-34.65 23.07,-23.09 34.62,-50.96 34.62,-83.57 0,-32.64 -11.55,-60.51 -34.62,-83.67 -23.09,-23.14 -50.96,-34.72 -83.56,-34.72 -32.61,0 -60.51,11.58 -83.65,34.72 -23.15,23.16 -34.72,51.03 -34.72,83.67 z m 217.17,0 c 0,27.32 -9.62,50.62 -28.9,69.91 -19.28,19.27 -42.56,28.92 -69.9,28.92 -27.32,0 -50.66,-9.65 -69.99,-28.92 -19.34,-19.29 -29,-42.59 -29,-69.91 0,-27.33 9.66,-50.66 29,-70 19.33,-19.3 42.67,-28.99 69.99,-28.99 27.34,0 50.62,9.69 69.9,28.99 19.28,19.34 28.9,42.67 28.9,70 z m -62.07,-71.19 -37.09,62.7 -21.06,0 0,-62.7 -20.68,0 0,145.43 37.32,0 c 35.02,0 52.52,-13.43 52.52,-40.25 0,-18.66 -9.42,-31.86 -28.26,-39.55 l 39.88,-65.63 -22.63,0 z m -58.15,127.82 0,-48.62 c 1.74,-0.24 6.28,-0.33 13.6,-0.33 13.5,0 22.59,1.72 27.24,5.18 4.66,3.47 6.99,10.07 6.99,19.83 0,16.08 -10.48,24.12 -31.42,24.12 l -8.2,0 -8.21,-0.18" /></g></g></g></svg>