<?xml version="1.0" encoding="UTF-8" standalone="no"?>
<!-- Created with Inkscape (http://www.inkscape.org/) -->

<svg
   xmlns:osb="http://www.openswatchbook.org/uri/2009/osb"
   xmlns:dc="http://purl.org/dc/elements/1.1/"
   xmlns:cc="http://creativecommons.org/ns#"
   xmlns:rdf="http://www.w3.org/1999/02/22-rdf-syntax-ns#"
   xmlns:svg="http://www.w3.org/2000/svg"
   xmlns="http://www.w3.org/2000/svg"
   xmlns:xlink="http://www.w3.org/1999/xlink"
   xmlns:sodipodi="http://sodipodi.sourceforge.net/DTD/sodipodi-0.dtd"
   xmlns:inkscape="http://www.inkscape.org/namespaces/inkscape"
   id="svg3004"
   version="1.1"
   inkscape:version="0.48.5 r10040"
   width="640"
   height="480"
   xml:space="preserve"
   sodipodi:docname="fedora-grub.svg"
   inkscape:export-filename="cuckoo-dusk-linux-fedora-grub.png"
   inkscape:export-xdpi="90"
   inkscape:export-ydpi="90"><metadata
     id="metadata3010"><rdf:RDF><cc:Work
         rdf:about=""><dc:format>image/svg+xml</dc:format><dc:type
           rdf:resource="http://purl.org/dc/dcmitype/StillImage" /><dc:title /></cc:Work></rdf:RDF></metadata><defs
     id="defs3008"><linearGradient
       inkscape:collect="always"
       id="linearGradient4140"><stop
         style="stop-color:#0a58a4;stop-opacity:1;"
         offset="0"
         id="stop4142" /><stop
         style="stop-color:#0a58a4;stop-opacity:0;"
         offset="1"
         id="stop4144" /></linearGradient><linearGradient
       inkscape:collect="always"
       id="linearGradient4226"><stop
         style="stop-color:#0044aa;stop-opacity:1;"
         offset="0"
         id="stop4228" /><stop
         style="stop-color:#0044aa;stop-opacity:0;"
         offset="1"
         id="stop4230" /></linearGradient><linearGradient
       id="linearGradient4164"><stop
         style="stop-color:#a80030;stop-opacity:1;"
         offset="0"
         id="stop4166" /><stop
         style="stop-color:#a80030;stop-opacity:0;"
         offset="1"
         id="stop4168" /></linearGradient><linearGradient
       inkscape:collect="always"
       id="linearGradient5303"><stop
         style="stop-color:#f26711;stop-opacity:1;"
         offset="0"
         id="stop5305" /><stop
         style="stop-color:#f26711;stop-opacity:0;"
         offset="1"
         id="stop5307" /></linearGradient><linearGradient
       inkscape:collect="always"
       id="linearGradient5267"><stop
         style="stop-color:#666666;stop-opacity:1;"
         offset="0"
         id="stop5269" /><stop
         style="stop-color:#666666;stop-opacity:0;"
         offset="1"
         id="stop5271" /></linearGradient><linearGradient
       id="linearGradient5251"
       osb:paint="solid"><stop
         style="stop-color:#666666;stop-opacity:1;"
         offset="0"
         id="stop5253" /></linearGradient><linearGradient
       inkscape:collect="always"
       xlink:href="#linearGradient5267"
       id="linearGradient5273"
       x1="-395.36533"
       y1="-212.64204"
       x2="4.7634277"
       y2="-212.64204"
       gradientUnits="userSpaceOnUse" /><radialGradient
       inkscape:collect="always"
       xlink:href="#linearGradient5303"
       id="radialGradient5325"
       cx="-163.14774"
       cy="-366.26291"
       fx="-163.14774"
       fy="-366.26291"
       r="144.09399"
       gradientTransform="matrix(1,0,0,0.93388423,0,-24.215756)"
       gradientUnits="userSpaceOnUse" /><radialGradient
       inkscape:collect="always"
       xlink:href="#linearGradient4164"
       id="radialGradient4170"
       cx="1447.7778"
       cy="-272.91666"
       fx="1447.7778"
       fy="-272.91666"
       r="223.33333"
       gradientTransform="matrix(1,0,0,0.97512437,0,-6.7889738)"
       gradientUnits="userSpaceOnUse" /><radialGradient
       inkscape:collect="always"
       xlink:href="#linearGradient4164-9"
       id="radialGradient4170-9"
       cx="1447.7778"
       cy="-272.91666"
       fx="1447.7778"
       fy="-272.91666"
       r="223.33333"
       gradientTransform="matrix(1,0,0,0.97512437,0,-6.7889738)"
       gradientUnits="userSpaceOnUse" /><linearGradient
       inkscape:collect="always"
       id="linearGradient4164-9"><stop
         style="stop-color:#a80030;stop-opacity:1;"
         offset="0"
         id="stop4166-0" /><stop
         style="stop-color:#a80030;stop-opacity:0;"
         offset="1"
         id="stop4168-2" /></linearGradient><radialGradient
       r="223.33333"
       fy="-272.91666"
       fx="1447.7778"
       cy="-272.91666"
       cx="1447.7778"
       gradientTransform="matrix(1,0,0,0.97512437,0,-6.7889738)"
       gradientUnits="userSpaceOnUse"
       id="radialGradient4206"
       xlink:href="#linearGradient4164-9"
       inkscape:collect="always" /><radialGradient
       inkscape:collect="always"
       xlink:href="#linearGradient4164"
       id="radialGradient14319"
       gradientUnits="userSpaceOnUse"
       gradientTransform="matrix(1,0,0,0.97512437,0,-6.7889738)"
       cx="1447.7778"
       cy="-272.91666"
       fx="1447.7778"
       fy="-272.91666"
       r="223.33333" /><linearGradient
       inkscape:collect="always"
       xlink:href="#linearGradient5267"
       id="linearGradient14321"
       gradientUnits="userSpaceOnUse"
       x1="-395.36533"
       y1="-212.64204"
       x2="4.7634277"
       y2="-212.64204" /><linearGradient
       inkscape:collect="always"
       xlink:href="#linearGradient5267"
       id="linearGradient14345"
       gradientUnits="userSpaceOnUse"
       x1="-395.36533"
       y1="-212.64204"
       x2="4.7634277"
       y2="-212.64204" /><radialGradient
       inkscape:collect="always"
       xlink:href="#linearGradient4164"
       id="radialGradient14347"
       gradientUnits="userSpaceOnUse"
       gradientTransform="matrix(1,0,0,0.97512437,0,-6.7889738)"
       cx="1447.7778"
       cy="-272.91666"
       fx="1447.7778"
       fy="-272.91666"
       r="223.33333" /><radialGradient
       inkscape:collect="always"
       xlink:href="#linearGradient4164"
       id="radialGradient14931"
       gradientUnits="userSpaceOnUse"
       gradientTransform="matrix(1,0,0,0.97512437,0,-6.7889738)"
       cx="1447.7778"
       cy="-272.91666"
       fx="1447.7778"
       fy="-272.91666"
       r="223.33333" /><linearGradient
       inkscape:collect="always"
       xlink:href="#linearGradient5267"
       id="linearGradient14933"
       gradientUnits="userSpaceOnUse"
       x1="-395.36533"
       y1="-212.64204"
       x2="4.7634277"
       y2="-212.64204" /><radialGradient
       inkscape:collect="always"
       xlink:href="#linearGradient4164"
       id="radialGradient14961"
       gradientUnits="userSpaceOnUse"
       gradientTransform="matrix(1,0,0,0.97512437,0,-6.7889738)"
       cx="1447.7778"
       cy="-272.91666"
       fx="1447.7778"
       fy="-272.91666"
       r="223.33333" /><linearGradient
       inkscape:collect="always"
       xlink:href="#linearGradient5267"
       id="linearGradient14963"
       gradientUnits="userSpaceOnUse"
       x1="-395.36533"
       y1="-212.64204"
       x2="4.7634277"
       y2="-212.64204" /><linearGradient
       inkscape:collect="always"
       xlink:href="#linearGradient5267"
       id="linearGradient14991"
       gradientUnits="userSpaceOnUse"
       x1="-395.36533"
       y1="-212.64204"
       x2="4.7634277"
       y2="-212.64204" /><linearGradient
       inkscape:collect="always"
       xlink:href="#linearGradient5267"
       id="linearGradient15015"
       gradientUnits="userSpaceOnUse"
       x1="-395.36533"
       y1="-212.64204"
       x2="4.7634277"
       y2="-212.64204" /><linearGradient
       inkscape:collect="always"
       xlink:href="#linearGradient5267"
       id="linearGradient3725"
       gradientUnits="userSpaceOnUse"
       x1="-395.36533"
       y1="-212.64204"
       x2="4.7634277"
       y2="-212.64204" /><radialGradient
       r="125.55556"
       fy="-292.91666"
       fx="-318.88889"
       cy="-292.91666"
       cx="-318.88889"
       gradientTransform="matrix(1,0,0,1.0619468,0,18.145264)"
       gradientUnits="userSpaceOnUse"
       id="radialGradient3812"
       xlink:href="#linearGradient3787-8"
       inkscape:collect="always" /><linearGradient
       inkscape:collect="always"
       id="linearGradient3787-8"><stop
         style="stop-color:#000000;stop-opacity:1;"
         offset="0"
         id="stop3789-9" /><stop
         style="stop-color:#000000;stop-opacity:0;"
         offset="1"
         id="stop3791-4" /></linearGradient><radialGradient
       r="125.55556"
       fy="-292.91666"
       fx="-318.88889"
       cy="-292.91666"
       cx="-318.88889"
       gradientTransform="matrix(1,0,0,1.0619468,0,18.145264)"
       gradientUnits="userSpaceOnUse"
       id="radialGradient6789"
       xlink:href="#linearGradient3787-8"
       inkscape:collect="always" /><radialGradient
       inkscape:collect="always"
       xlink:href="#linearGradient4226"
       id="radialGradient4232"
       cx="1447.7778"
       cy="-272.91666"
       fx="1447.7778"
       fy="-272.91666"
       r="223.33333"
       gradientTransform="matrix(1,0,0,0.97512437,0,-6.7889738)"
       gradientUnits="userSpaceOnUse" /><linearGradient
       inkscape:collect="always"
       xlink:href="#linearGradient5267"
       id="linearGradient3366"
       gradientUnits="userSpaceOnUse"
       x1="-395.36533"
       y1="-212.64204"
       x2="4.7634277"
       y2="-212.64204" /><radialGradient
       inkscape:collect="always"
       xlink:href="#linearGradient3787-8"
       id="radialGradient3370"
       gradientUnits="userSpaceOnUse"
       gradientTransform="matrix(1,0,0,1.0619468,0,18.145264)"
       cx="-318.88889"
       cy="-292.91666"
       fx="-318.88889"
       fy="-292.91666"
       r="125.55556" /><radialGradient
       inkscape:collect="always"
       xlink:href="#linearGradient4140"
       id="radialGradient4146"
       cx="1447.7778"
       cy="-272.91666"
       fx="1447.7778"
       fy="-272.91666"
       r="223.33333"
       gradientTransform="matrix(1,0,0,0.97512437,0,-6.7889738)"
       gradientUnits="userSpaceOnUse" /><radialGradient
       inkscape:collect="always"
       xlink:href="#linearGradient3787-8"
       id="radialGradient3093"
       gradientUnits="userSpaceOnUse"
       gradientTransform="matrix(1,0,0,1.0619468,0,18.145264)"
       cx="-318.88889"
       cy="-292.91666"
       fx="-318.88889"
       fy="-292.91666"
       r="125.55556" /><radialGradient
       inkscape:collect="always"
       xlink:href="#linearGradient4140"
       id="radialGradient3095"
       gradientUnits="userSpaceOnUse"
       gradientTransform="matrix(1,0,0,0.97512437,0,-6.7889738)"
       cx="1447.7778"
       cy="-272.91666"
       fx="1447.7778"
       fy="-272.91666"
       r="223.33333" /><linearGradient
       inkscape:collect="always"
       xlink:href="#linearGradient5267"
       id="linearGradient3097"
       gradientUnits="userSpaceOnUse"
       x1="-395.36533"
       y1="-212.64204"
       x2="4.7634277"
       y2="-212.64204" /><radialGradient
       inkscape:collect="always"
       xlink:href="#linearGradient3787-8"
       id="radialGradient7088"
       gradientUnits="userSpaceOnUse"
       gradientTransform="matrix(1,0,0,1.0619468,0,18.145264)"
       cx="-318.88889"
       cy="-292.91666"
       fx="-318.88889"
       fy="-292.91666"
       r="125.55556" /><radialGradient
       inkscape:collect="always"
       xlink:href="#linearGradient4140"
       id="radialGradient7090"
       gradientUnits="userSpaceOnUse"
       gradientTransform="matrix(1,0,0,0.97512437,0,-6.7889738)"
       cx="1447.7778"
       cy="-272.91666"
       fx="1447.7778"
       fy="-272.91666"
       r="223.33333" /><linearGradient
       inkscape:collect="always"
       xlink:href="#linearGradient5267"
       id="linearGradient7092"
       gradientUnits="userSpaceOnUse"
       x1="-395.36533"
       y1="-212.64204"
       x2="4.7634277"
       y2="-212.64204" /><radialGradient
       inkscape:collect="always"
       xlink:href="#linearGradient3787-8"
       id="radialGradient7156"
       gradientUnits="userSpaceOnUse"
       gradientTransform="matrix(1,0,0,1.0619468,0,18.145264)"
       cx="-318.88889"
       cy="-292.91666"
       fx="-318.88889"
       fy="-292.91666"
       r="125.55556" /><radialGradient
       inkscape:collect="always"
       xlink:href="#linearGradient4140"
       id="radialGradient7158"
       gradientUnits="userSpaceOnUse"
       gradientTransform="matrix(1,0,0,0.97512437,0,-6.7889738)"
       cx="1447.7778"
       cy="-272.91666"
       fx="1447.7778"
       fy="-272.91666"
       r="223.33333" /><linearGradient
       inkscape:collect="always"
       xlink:href="#linearGradient5267"
       id="linearGradient7160"
       gradientUnits="userSpaceOnUse"
       x1="-395.36533"
       y1="-212.64204"
       x2="4.7634277"
       y2="-212.64204" /><radialGradient
       inkscape:collect="always"
       xlink:href="#linearGradient3787-8-5"
       id="radialGradient3863"
       gradientUnits="userSpaceOnUse"
       gradientTransform="matrix(1,0,0,1.0619468,0,18.145264)"
       cx="-318.88889"
       cy="-292.91666"
       fx="-318.88889"
       fy="-292.91666"
       r="125.55556" /><linearGradient
       inkscape:collect="always"
       id="linearGradient3787-8-5"><stop
         style="stop-color:#000000;stop-opacity:1;"
         offset="0"
         id="stop3789-9-3" /><stop
         style="stop-color:#000000;stop-opacity:0;"
         offset="1"
         id="stop3791-4-6" /></linearGradient><radialGradient
       inkscape:collect="always"
       xlink:href="#linearGradient3882"
       id="radialGradient3865"
       gradientUnits="userSpaceOnUse"
       gradientTransform="matrix(1,0,0,0.97512437,0,-6.7889738)"
       cx="1447.7778"
       cy="-272.91666"
       fx="1447.7778"
       fy="-272.91666"
       r="223.33333" /><linearGradient
       id="linearGradient3882"><stop
         style="stop-color:#0a57a4;stop-opacity:1;"
         offset="0"
         id="stop3904" /><stop
         style="stop-color:#0a57a4;stop-opacity:0;"
         offset="1"
         id="stop3886" /></linearGradient><linearGradient
       inkscape:collect="always"
       xlink:href="#linearGradient5267-9"
       id="linearGradient3883"
       gradientUnits="userSpaceOnUse"
       x1="-395.36533"
       y1="-212.64204"
       x2="4.7634277"
       y2="-212.64204" /><linearGradient
       inkscape:collect="always"
       id="linearGradient5267-9"><stop
         style="stop-color:#666666;stop-opacity:1;"
         offset="0"
         id="stop5269-7" /><stop
         style="stop-color:#666666;stop-opacity:0;"
         offset="1"
         id="stop5271-3" /></linearGradient><linearGradient
       inkscape:collect="always"
       xlink:href="#linearGradient5267-9"
       id="linearGradient3155"
       gradientUnits="userSpaceOnUse"
       x1="-395.36533"
       y1="-212.64204"
       x2="4.7634277"
       y2="-212.64204" /><radialGradient
       inkscape:collect="always"
       xlink:href="#linearGradient3882"
       id="radialGradient3157"
       gradientUnits="userSpaceOnUse"
       gradientTransform="matrix(1,0,0,0.97512437,0,-6.7889738)"
       cx="1447.7778"
       cy="-272.91666"
       fx="1447.7778"
       fy="-272.91666"
       r="223.33333" /><radialGradient
       inkscape:collect="always"
       xlink:href="#linearGradient3787-8-5"
       id="radialGradient3159"
       gradientUnits="userSpaceOnUse"
       gradientTransform="matrix(1,0,0,1.0619468,0,18.145264)"
       cx="-318.88889"
       cy="-292.91666"
       fx="-318.88889"
       fy="-292.91666"
       r="125.55556" /><radialGradient
       inkscape:collect="always"
       xlink:href="#linearGradient3787-8-4"
       id="radialGradient3857"
       gradientUnits="userSpaceOnUse"
       gradientTransform="matrix(1,0,0,1.0619468,0,18.145264)"
       cx="-318.88889"
       cy="-292.91666"
       fx="-318.88889"
       fy="-292.91666"
       r="125.55556" /><linearGradient
       inkscape:collect="always"
       id="linearGradient3787-8-4"><stop
         style="stop-color:#000000;stop-opacity:1;"
         offset="0"
         id="stop3789-9-1" /><stop
         style="stop-color:#000000;stop-opacity:0;"
         offset="1"
         id="stop3791-4-2" /></linearGradient><radialGradient
       inkscape:collect="always"
       xlink:href="#linearGradient3882-3"
       id="radialGradient3855"
       gradientUnits="userSpaceOnUse"
       gradientTransform="matrix(1,0,0,0.97512437,0,-6.7889738)"
       cx="1447.7778"
       cy="-272.91666"
       fx="1447.7778"
       fy="-272.91666"
       r="223.33333" /><linearGradient
       id="linearGradient3882-3"><stop
         style="stop-color:#0a57a4;stop-opacity:1;"
         offset="0"
         id="stop3904-8" /><stop
         style="stop-color:#0a57a4;stop-opacity:0;"
         offset="1"
         id="stop3886-3" /></linearGradient><linearGradient
       inkscape:collect="always"
       xlink:href="#linearGradient5267-92"
       id="linearGradient3853"
       gradientUnits="userSpaceOnUse"
       x1="-395.36533"
       y1="-212.64204"
       x2="4.7634277"
       y2="-212.64204" /><linearGradient
       id="linearGradient5267-92"><stop
         style="stop-color:#242424;stop-opacity:1;"
         offset="0"
         id="stop5269-8" /><stop
         style="stop-color:#666666;stop-opacity:0;"
         offset="1"
         id="stop5271-0" /></linearGradient><linearGradient
       inkscape:collect="always"
       xlink:href="#linearGradient5267-92"
       id="linearGradient3859"
       gradientUnits="userSpaceOnUse"
       x1="-395.36533"
       y1="-212.64204"
       x2="4.7634277"
       y2="-212.64204" /><radialGradient
       inkscape:collect="always"
       xlink:href="#linearGradient3882-3"
       id="radialGradient3861"
       gradientUnits="userSpaceOnUse"
       gradientTransform="matrix(1,0,0,0.97512437,0,-6.7889738)"
       cx="1447.7778"
       cy="-272.91666"
       fx="1447.7778"
       fy="-272.91666"
       r="223.33333" /><radialGradient
       inkscape:collect="always"
       xlink:href="#linearGradient3787-8-4"
       id="radialGradient3864"
       gradientUnits="userSpaceOnUse"
       gradientTransform="matrix(1,0,0,1.0619468,0,18.145264)"
       cx="-318.88889"
       cy="-292.91666"
       fx="-318.88889"
       fy="-292.91666"
       r="125.55556" /><linearGradient
       inkscape:collect="always"
       xlink:href="#linearGradient5267-92"
       id="linearGradient3862"
       gradientUnits="userSpaceOnUse"
       x1="-395.36533"
       y1="-212.64204"
       x2="4.7634277"
       y2="-212.64204" /><radialGradient
       inkscape:collect="always"
       xlink:href="#linearGradient3882-3"
       id="radialGradient3866"
       gradientUnits="userSpaceOnUse"
       gradientTransform="matrix(1,0,0,0.97512437,0,-6.7889738)"
       cx="1447.7778"
       cy="-272.91666"
       fx="1447.7778"
       fy="-272.91666"
       r="223.33333" /><radialGradient
       inkscape:collect="always"
       xlink:href="#linearGradient3787-8-4"
       id="radialGradient3868"
       gradientUnits="userSpaceOnUse"
       gradientTransform="matrix(1,0,0,1.0619468,0,18.145264)"
       cx="-318.88889"
       cy="-292.91666"
       fx="-318.88889"
       fy="-292.91666"
       r="125.55556" /></defs><sodipodi:namedview
     pagecolor="#ffffff"
     bordercolor="#666666"
     borderopacity="1"
     objecttolerance="10"
     gridtolerance="10"
     guidetolerance="10"
     inkscape:pageopacity="0"
     inkscape:pageshadow="2"
     inkscape:window-width="1920"
     inkscape:window-height="1036"
     id="namedview3006"
     showgrid="false"
     inkscape:zoom="1.4"
     inkscape:cx="327.20328"
     inkscape:cy="239.09032"
     inkscape:window-x="0"
     inkscape:window-y="25"
     inkscape:window-maximized="1"
     inkscape:current-layer="g3012" /><g
     id="g3012"
     inkscape:groupmode="layer"
     inkscape:label="ink_ext_XXXXXX"
     transform="matrix(1.25,0,0,-1.25,0,480)"><rect
       style="fill:#161616;fill-opacity:1;stroke:none"
       id="rect3036"
       width="512"
       height="384"
       x="0"
       y="-384"
       transform="scale(1,-1)" /><g
       id="g3870"><path
         transform="matrix(0.6446042,0,0,-0.59733322,342.10069,-9.7066291)"
         d="m -34.285713,-337.67856 a 99.285713,107.14286 0 1 1 -198.571427,0 99.285713,107.14286 0 1 1 198.571427,0 z"
         sodipodi:ry="107.14286"
         sodipodi:rx="99.285713"
         sodipodi:cy="-337.67856"
         sodipodi:cx="-133.57143"
         id="path3219"
         style="fill:#080808;fill-opacity:1;fill-rule:nonzero;stroke:none"
         sodipodi:type="arc" /><path
         transform="matrix(0,0.5097344,0.47999993,0,396.59996,354.54863)"
         d="m -193.33333,-292.91666 a 125.55556,133.33333 0 1 1 -251.11111,0 125.55556,133.33333 0 1 1 251.11111,0 z"
         sodipodi:ry="133.33333"
         sodipodi:rx="125.55556"
         sodipodi:cy="-292.91666"
         sodipodi:cx="-318.88889"
         id="path5277-0"
         style="opacity:0.75;fill:url(#radialGradient3868);fill-opacity:1;fill-rule:evenodd;stroke:none"
         sodipodi:type="arc" /><path
         transform="matrix(0.28656712,0,0,-0.2938775,-158.88554,111.79593)"
         d="m 1671.1112,-272.91666 a 223.33333,217.77777 0 1 1 -446.6667,0 223.33333,217.77777 0 1 1 446.6667,0 z"
         sodipodi:ry="217.77777"
         sodipodi:rx="223.33333"
         sodipodi:cy="-272.91666"
         sodipodi:cx="1447.7778"
         id="path4162"
         style="fill:url(#radialGradient3866);fill-opacity:1;fill-rule:nonzero;stroke:none"
         sodipodi:type="arc" /><path
         transform="matrix(0,-0.31989697,-0.34450443,0,182.74386,129.5238)"
         d="m 4.7634277,-212.64204 a 200.06438,185.77406 0 1 1 -400.1287577,0 200.06438,185.77406 0 1 1 400.1287577,0 z"
         sodipodi:ry="185.77406"
         sodipodi:rx="200.06438"
         sodipodi:cy="-212.64204"
         sodipodi:cx="-195.30095"
         id="path3806"
         style="fill:url(#linearGradient3862);fill-opacity:1;fill-rule:evenodd;stroke:none"
         sodipodi:type="arc" /><g
         transform="matrix(0.59259248,0,0,0.59259248,192.0006,128.00001)"
         id="g7132"><path
           style="fill:#0a57a4;fill-opacity:1;fill-rule:nonzero;stroke:none"
           d="m 104.649,90.36387 c -1.1934,0 -2.1682,-0.92632 -2.1682,-2.11923 l 0,-11.40647 c -1.1046,2.03309 -3.483897,3.41037 -6.313097,3.41037 -5.7459,0 -9.5812,-4.34744 -9.5812,-10.13761 0,-5.79033 3.968,-10.11089 9.5812,-10.11089 2.5038,0 4.670397,1.03531 5.970397,2.83159 l 0.4808,-1.21991 c 0.298,-0.83753 1.1138,-1.42914 2.0525,-1.42914 1.1876,-1e-5 2.1415,0.94887 2.1415,2.1415 l 0,0.0267 0,25.89384 c 0,1.19292 -0.9705,2.11924 -2.1639,2.11924 z m -44.116497,-0.049 c -4.476,0 -8.1118,-3.63118 -8.1118,-8.10742 l 0,-2.53327 -2.6491,0 c -0.9724,0 -1.772,-0.80447 -1.772,-1.77642 0,-0.97296 0.7996,-1.95897 1.772,-1.95897 l 2.6491,0 0,-13.58804 c 0,-1.19318 0.9749,-2.16821 2.1681,-2.16821 1.1936,0 2.1638,0.97503 2.1638,2.16821 l 0,13.58804 2.9251,0 c 0.9723,0 1.7764,0.98601 1.7764,1.95897 0,0.97195 -0.8041,1.77642 -1.7764,1.77642 l -2.9251,0 0,2.53327 c 0,2.08723 1.6928,4.05594 3.7799,4.05594 0.1881,0 0.3887,5.3e-4 0.5744,-0.0267 1.1838,-0.17526 2.2907,0.36089 2.4664,1.54491 0.1746,1.18345 -0.6596,2.26858 -1.8431,2.44424 -0.3951,0.0584 -0.7979,0.089 -1.1977,0.089 z m 12.7154,-10.06637 c -5.6133,0 -9.973,-4.52438 -9.973,-10.13761 0,-5.61359 4.4977,-10.11089 10.111,-10.11089 3.0941,0 6.2289,1.32828 8.0851,3.31688 0.3981,0.39819 0.6234,0.92052 0.6234,1.40688 0,0.35331 -0.1258,0.70123 -0.3472,1.01064 -0.3533,0.44191 -0.8943,0.7168 -1.4249,0.7168 -0.3977,0 -0.7544,-0.0815 -1.064,-0.39178 -1.5471,-1.50242 -3.4803,-2.44426 -5.7344,-2.44426 -3.182,0 -5.5623,2.22164 -5.7833,5.18234 13.6579,0 13.6415,0 13.6415,0 0.8398,0 1.6115,0.56682 1.6115,1.40689 0,5.70158 -4.1766,10.04411 -9.7457,10.04411 z m 47.179797,0 C 114.8144,80.2485 110.29,75.72412 110.29,70.11089 110.29,64.4973 114.8144,60 120.4277,60 c 5.6138,0 10.1109,4.4973 10.1109,10.11089 0,5.61323 -4.4971,10.13761 -10.1109,10.13761 z m 24.7184,0 c -2.9654,0 -4.9242,-0.8837 -6.656,-3.08537 l -0.1647,1.03736 c -0.1344,1.06905 -1.0375,1.88773 -2.1415,1.88773 -1.1979,0 -2.1639,-0.96978 -2.1639,-2.16821 l 0,-0.0222 0,-15.547 c 0,-1.19318 0.9703,-2.16821 2.1639,-2.16821 1.1935,0 2.1682,0.97503 2.1682,2.16821 l 0,8.33892 c 0,3.801 3.3021,5.71213 6.794,5.71213 1.061,0 1.9099,0.87577 1.9099,1.93671 0,1.0607 -0.8489,1.90998 -1.9099,1.90998 z m 12.7377,0 c -5.6137,0 -10.1554,-4.52438 -10.1554,-10.13761 0,-5.61359 4.415,-10.11089 9.7635,-10.11089 2.6693,0 5.0589,1.37394 6.1306,2.80932 l 0.5299,-1.33566 c 0.2832,-0.75247 1.0142,-1.29112 1.8655,-1.29112 1.0973,-1e-5 1.9798,0.88477 1.9813,1.98122 l 0,5.18234 0,2.76479 c 0.044,5.43626 -3.839,10.13761 -10.1154,10.13761 z M 73.247903,76.61107 c 2.9173,0 5.0384,-2.07734 5.4361,-4.77273 l -10.8722,0 c 0.4417,2.82807 2.4748,4.77273 5.4361,4.77273 z m 23.4496,-0.20926 c 3.536297,0 5.783297,-2.71058 5.783297,-6.29092 0,-3.57955 -2.247,-6.2642 -5.783297,-6.2642 -3.5357,0 -5.7789,2.8171 -5.7789,6.2642 0,3.44711 2.2432,6.29092 5.7789,6.29092 z m 23.730197,0 c 3.5359,0 5.8278,-2.84381 5.8278,-6.29092 0,-3.4471 -2.2919,-6.2642 -5.8278,-6.2642 -3.5358,0 -5.8503,2.8171 -5.8503,6.2642 0,3.44711 2.3145,6.29092 5.8503,6.29092 z m 37.4561,0 c 3.5358,0 5.8279,-2.84381 5.8279,-6.29092 0,-3.4471 -2.2921,-6.2642 -5.8279,-6.2642 -3.5363,0 -5.828,2.8171 -5.828,6.2642 0,3.44711 2.2917,6.29092 5.828,6.29092 z"
           id="path3562"
           inkscape:connector-curvature="0" /><g
           id="g3339"
           transform="matrix(0.33802626,0,0,0.33803028,-469.542,-107.88085)"><path
             style="fill:#294172"
             id="voice"
             d="m 1815.072,745.13795 c 0,58.81988 -47.6828,106.50424 -106.5022,106.50424 -58.793,0 -106.4573,-47.64432 -106.499,-106.42914 l 0,-82.41684 c 0.032,-13.34746 10.857,-24.15269 24.2128,-24.15269 l 82.3294,0 c 58.7998,0.023 106.459,47.6902 106.459,106.49443"
             inkscape:connector-curvature="0" /><path
             style="fill:none;stroke:#3c6eb4;stroke-width:23.36800003"
             id="in"
             d="m 1663.4725,738.26481 c 0,0 38.2758,0 38.2758,0 0,0 0,-38.27583 0,-38.27583 0,-21.12823 -17.1476,-38.27578 -38.2758,-38.27578 -21.1283,0 -38.2758,17.14755 -38.2758,38.27578 0,21.12825 17.1475,38.27583 38.2758,38.27583 z"
             inkscape:connector-curvature="0" /><use
             xlink:href="#in"
             id="finity"
             transform="matrix(-1,0,0,-1,3403.312,1476.4552)"
             x="0"
             y="0"
             width="744.09448"
             height="1052.3622" /><path
             style="fill:#ffffff"
             id="free"
             d="m 1713.4573,749.91947 0,-49.87694 c 0,-27.60322 -22.3802,-49.984 -49.9844,-49.984 -4.188,0 -7.1652,0.4728 -11.0419,1.48616 -5.6528,1.47929 -10.2724,6.11402 -10.2743,11.50488 0,6.51611 4.7299,11.25592 11.8002,11.25592 3.3651,0 4.5862,-0.64612 9.516,-0.64612 14.5532,0 26.3581,11.78816 26.3836,26.34144 l 0,22.92525 c 0,2.0542 -1.6693,3.7186 -3.7269,3.7186 l -17.3322,0.003 c -6.4577,0 -11.6752,5.15075 -11.6752,11.62613 0,6.51565 5.271,11.64526 11.7985,11.64526"
             inkscape:connector-curvature="0" /><use
             xlink:href="#free"
             id="dom"
             transform="matrix(-1,0,0,-1,3403.312,1476.4551)"
             x="0"
             y="0"
             width="744.09448"
             height="1052.3622" /><path
             style="fill:#3c6eb4"
             id="TM"
             d="m 1796.6951,657.07545 c 0,0 0,4.42512 0,4.42512 l -2.0228,-4.63821 c 0,0 -1.9691,4.63821 -1.9691,4.63821 l 3e-4,-4.42512 -1.1346,0 0,6.98794 1.1896,0 c 0,0 1.9472,-4.46441 1.9472,-4.46441 l 1.9177,4.46441 1.2043,0 0,-6.98794 -1.1326,0 z m -8.2664,5.81748 0,-5.81748 -1.1857,0 0,5.81748 -1.988,0 0,1.17046 5.1596,0 0,-1.17046"
             inkscape:connector-curvature="0" /></g></g></g></g></svg>