<?xml version="1.0" encoding="UTF-8" standalone="no"?>
<!-- Created with Inkscape (http://www.inkscape.org/) -->

<svg
   xmlns:osb="http://www.openswatchbook.org/uri/2009/osb"
   xmlns:dc="http://purl.org/dc/elements/1.1/"
   xmlns:cc="http://creativecommons.org/ns#"
   xmlns:rdf="http://www.w3.org/1999/02/22-rdf-syntax-ns#"
   xmlns:svg="http://www.w3.org/2000/svg"
   xmlns="http://www.w3.org/2000/svg"
   xmlns:xlink="http://www.w3.org/1999/xlink"
   xmlns:sodipodi="http://sodipodi.sourceforge.net/DTD/sodipodi-0.dtd"
   xmlns:inkscape="http://www.inkscape.org/namespaces/inkscape"
   id="svg3004"
   version="1.1"
   inkscape:version="0.48.5 r10040"
   width="640"
   height="480"
   xml:space="preserve"
   sodipodi:docname="alt-grub.svg"
   inkscape:export-filename="cuckoo-light-linux-alt-grub.png"
   inkscape:export-xdpi="90"
   inkscape:export-ydpi="90"><metadata
     id="metadata3010"><rdf:RDF><cc:Work
         rdf:about=""><dc:format>image/svg+xml</dc:format><dc:type
           rdf:resource="http://purl.org/dc/dcmitype/StillImage" /><dc:title /></cc:Work></rdf:RDF></metadata><defs
     id="defs3008"><linearGradient
       inkscape:collect="always"
       id="linearGradient5047"><stop
         style="stop-color:#fdd005;stop-opacity:1;"
         offset="0"
         id="stop5049" /><stop
         style="stop-color:#fdd005;stop-opacity:0;"
         offset="1"
         id="stop5051" /></linearGradient><linearGradient
       id="linearGradient4164"><stop
         style="stop-color:#a80030;stop-opacity:1;"
         offset="0"
         id="stop4166" /><stop
         style="stop-color:#a80030;stop-opacity:0;"
         offset="1"
         id="stop4168" /></linearGradient><linearGradient
       inkscape:collect="always"
       id="linearGradient5303"><stop
         style="stop-color:#f26711;stop-opacity:1;"
         offset="0"
         id="stop5305" /><stop
         style="stop-color:#f26711;stop-opacity:0;"
         offset="1"
         id="stop5307" /></linearGradient><linearGradient
       inkscape:collect="always"
       id="linearGradient5267"><stop
         style="stop-color:#666666;stop-opacity:1;"
         offset="0"
         id="stop5269" /><stop
         style="stop-color:#666666;stop-opacity:0;"
         offset="1"
         id="stop5271" /></linearGradient><linearGradient
       id="linearGradient5251"
       osb:paint="solid"><stop
         style="stop-color:#666666;stop-opacity:1;"
         offset="0"
         id="stop5253" /></linearGradient><linearGradient
       inkscape:collect="always"
       xlink:href="#linearGradient5267"
       id="linearGradient5273"
       x1="-395.36533"
       y1="-212.64204"
       x2="4.7634277"
       y2="-212.64204"
       gradientUnits="userSpaceOnUse" /><radialGradient
       inkscape:collect="always"
       xlink:href="#linearGradient5303"
       id="radialGradient5325"
       cx="-163.14774"
       cy="-366.26291"
       fx="-163.14774"
       fy="-366.26291"
       r="144.09399"
       gradientTransform="matrix(1,0,0,0.93388423,0,-24.215756)"
       gradientUnits="userSpaceOnUse" /><radialGradient
       inkscape:collect="always"
       xlink:href="#linearGradient4164"
       id="radialGradient4170"
       cx="1447.7778"
       cy="-272.91666"
       fx="1447.7778"
       fy="-272.91666"
       r="223.33333"
       gradientTransform="matrix(1,0,0,0.97512437,0,-6.7889738)"
       gradientUnits="userSpaceOnUse" /><radialGradient
       inkscape:collect="always"
       xlink:href="#linearGradient4164-9"
       id="radialGradient4170-9"
       cx="1447.7778"
       cy="-272.91666"
       fx="1447.7778"
       fy="-272.91666"
       r="223.33333"
       gradientTransform="matrix(1,0,0,0.97512437,0,-6.7889738)"
       gradientUnits="userSpaceOnUse" /><linearGradient
       inkscape:collect="always"
       id="linearGradient4164-9"><stop
         style="stop-color:#a80030;stop-opacity:1;"
         offset="0"
         id="stop4166-0" /><stop
         style="stop-color:#a80030;stop-opacity:0;"
         offset="1"
         id="stop4168-2" /></linearGradient><radialGradient
       r="223.33333"
       fy="-272.91666"
       fx="1447.7778"
       cy="-272.91666"
       cx="1447.7778"
       gradientTransform="matrix(1,0,0,0.97512437,0,-6.7889738)"
       gradientUnits="userSpaceOnUse"
       id="radialGradient4206"
       xlink:href="#linearGradient4164-9"
       inkscape:collect="always" /><radialGradient
       inkscape:collect="always"
       xlink:href="#linearGradient4164"
       id="radialGradient14319"
       gradientUnits="userSpaceOnUse"
       gradientTransform="matrix(1,0,0,0.97512437,0,-6.7889738)"
       cx="1447.7778"
       cy="-272.91666"
       fx="1447.7778"
       fy="-272.91666"
       r="223.33333" /><linearGradient
       inkscape:collect="always"
       xlink:href="#linearGradient5267"
       id="linearGradient14321"
       gradientUnits="userSpaceOnUse"
       x1="-395.36533"
       y1="-212.64204"
       x2="4.7634277"
       y2="-212.64204" /><linearGradient
       inkscape:collect="always"
       xlink:href="#linearGradient5267"
       id="linearGradient14345"
       gradientUnits="userSpaceOnUse"
       x1="-395.36533"
       y1="-212.64204"
       x2="4.7634277"
       y2="-212.64204" /><radialGradient
       inkscape:collect="always"
       xlink:href="#linearGradient4164"
       id="radialGradient14347"
       gradientUnits="userSpaceOnUse"
       gradientTransform="matrix(1,0,0,0.97512437,0,-6.7889738)"
       cx="1447.7778"
       cy="-272.91666"
       fx="1447.7778"
       fy="-272.91666"
       r="223.33333" /><radialGradient
       inkscape:collect="always"
       xlink:href="#linearGradient4164"
       id="radialGradient14931"
       gradientUnits="userSpaceOnUse"
       gradientTransform="matrix(1,0,0,0.97512437,0,-6.7889738)"
       cx="1447.7778"
       cy="-272.91666"
       fx="1447.7778"
       fy="-272.91666"
       r="223.33333" /><linearGradient
       inkscape:collect="always"
       xlink:href="#linearGradient5267"
       id="linearGradient14933"
       gradientUnits="userSpaceOnUse"
       x1="-395.36533"
       y1="-212.64204"
       x2="4.7634277"
       y2="-212.64204" /><radialGradient
       inkscape:collect="always"
       xlink:href="#linearGradient4164"
       id="radialGradient14961"
       gradientUnits="userSpaceOnUse"
       gradientTransform="matrix(1,0,0,0.97512437,0,-6.7889738)"
       cx="1447.7778"
       cy="-272.91666"
       fx="1447.7778"
       fy="-272.91666"
       r="223.33333" /><linearGradient
       inkscape:collect="always"
       xlink:href="#linearGradient5267"
       id="linearGradient14963"
       gradientUnits="userSpaceOnUse"
       x1="-395.36533"
       y1="-212.64204"
       x2="4.7634277"
       y2="-212.64204" /><radialGradient
       inkscape:collect="always"
       xlink:href="#linearGradient4164"
       id="radialGradient14989"
       gradientUnits="userSpaceOnUse"
       gradientTransform="matrix(1,0,0,0.97512437,0,-6.7889738)"
       cx="1447.7778"
       cy="-272.91666"
       fx="1447.7778"
       fy="-272.91666"
       r="223.33333" /><linearGradient
       inkscape:collect="always"
       xlink:href="#linearGradient5267"
       id="linearGradient14991"
       gradientUnits="userSpaceOnUse"
       x1="-395.36533"
       y1="-212.64204"
       x2="4.7634277"
       y2="-212.64204" /><linearGradient
       inkscape:collect="always"
       xlink:href="#linearGradient5267"
       id="linearGradient15015"
       gradientUnits="userSpaceOnUse"
       x1="-395.36533"
       y1="-212.64204"
       x2="4.7634277"
       y2="-212.64204" /><linearGradient
       inkscape:collect="always"
       xlink:href="#linearGradient5267"
       id="linearGradient3725"
       gradientUnits="userSpaceOnUse"
       x1="-395.36533"
       y1="-212.64204"
       x2="4.7634277"
       y2="-212.64204" /><radialGradient
       r="125.55556"
       fy="-292.91666"
       fx="-318.88889"
       cy="-292.91666"
       cx="-318.88889"
       gradientTransform="matrix(1,0,0,1.0619468,0,18.145264)"
       gradientUnits="userSpaceOnUse"
       id="radialGradient3812"
       xlink:href="#linearGradient3787-8"
       inkscape:collect="always" /><linearGradient
       inkscape:collect="always"
       id="linearGradient3787-8"><stop
         style="stop-color:#000000;stop-opacity:1;"
         offset="0"
         id="stop3789-9" /><stop
         style="stop-color:#000000;stop-opacity:0;"
         offset="1"
         id="stop3791-4" /></linearGradient><radialGradient
       r="125.55556"
       fy="-292.91666"
       fx="-318.88889"
       cy="-292.91666"
       cx="-318.88889"
       gradientTransform="matrix(1,0,0,1.0619468,0,18.145264)"
       gradientUnits="userSpaceOnUse"
       id="radialGradient6789"
       xlink:href="#linearGradient3787-8"
       inkscape:collect="always" /><linearGradient
       inkscape:collect="always"
       xlink:href="#linearGradient5267"
       id="linearGradient4511"
       gradientUnits="userSpaceOnUse"
       x1="-395.36533"
       y1="-212.64204"
       x2="4.7634277"
       y2="-212.64204" /><radialGradient
       inkscape:collect="always"
       xlink:href="#linearGradient5047"
       id="radialGradient5053"
       cx="1447.7778"
       cy="-272.91666"
       fx="1447.7778"
       fy="-272.91666"
       r="223.33333"
       gradientTransform="matrix(1,0,0,0.97512437,0,-6.7889738)"
       gradientUnits="userSpaceOnUse" /><radialGradient
       inkscape:collect="always"
       xlink:href="#linearGradient3787-8"
       id="radialGradient5083"
       gradientUnits="userSpaceOnUse"
       gradientTransform="matrix(1,0,0,1.0619468,0,18.145264)"
       cx="-318.88889"
       cy="-292.91666"
       fx="-318.88889"
       fy="-292.91666"
       r="125.55556" /><radialGradient
       inkscape:collect="always"
       xlink:href="#linearGradient3787-8-8"
       id="radialGradient3868"
       gradientUnits="userSpaceOnUse"
       gradientTransform="matrix(1,0,0,1.0619468,0,18.145264)"
       cx="-318.88889"
       cy="-292.91666"
       fx="-318.88889"
       fy="-292.91666"
       r="125.55556" /><linearGradient
       inkscape:collect="always"
       id="linearGradient3787-8-8"><stop
         style="stop-color:#000000;stop-opacity:1;"
         offset="0"
         id="stop3789-9-2" /><stop
         style="stop-color:#000000;stop-opacity:0;"
         offset="1"
         id="stop3791-4-0" /></linearGradient><radialGradient
       inkscape:collect="always"
       xlink:href="#linearGradient5047-9"
       id="radialGradient3866"
       gradientUnits="userSpaceOnUse"
       gradientTransform="matrix(1,0,0,0.97512437,0,-6.7889738)"
       cx="1447.7778"
       cy="-272.91666"
       fx="1447.7778"
       fy="-272.91666"
       r="223.33333" /><linearGradient
       inkscape:collect="always"
       id="linearGradient5047-9"><stop
         style="stop-color:#fdd005;stop-opacity:1;"
         offset="0"
         id="stop5049-1" /><stop
         style="stop-color:#fdd005;stop-opacity:0;"
         offset="1"
         id="stop5051-1" /></linearGradient><linearGradient
       inkscape:collect="always"
       xlink:href="#linearGradient5267-1"
       id="linearGradient3864"
       gradientUnits="userSpaceOnUse"
       x1="-395.36533"
       y1="-212.64204"
       x2="4.7634277"
       y2="-212.64204" /><linearGradient
       id="linearGradient5267-1"><stop
         style="stop-color:#ffffff;stop-opacity:1;"
         offset="0"
         id="stop5269-1" /><stop
         style="stop-color:#666666;stop-opacity:0;"
         offset="1"
         id="stop5271-7" /></linearGradient><linearGradient
       inkscape:collect="always"
       xlink:href="#linearGradient5267-1"
       id="linearGradient3868"
       gradientUnits="userSpaceOnUse"
       x1="-395.36533"
       y1="-212.64204"
       x2="4.7634277"
       y2="-212.64204" /><radialGradient
       inkscape:collect="always"
       xlink:href="#linearGradient5047-9"
       id="radialGradient3870"
       gradientUnits="userSpaceOnUse"
       gradientTransform="matrix(1,0,0,0.97512437,0,-6.7889738)"
       cx="1447.7778"
       cy="-272.91666"
       fx="1447.7778"
       fy="-272.91666"
       r="223.33333" /><radialGradient
       inkscape:collect="always"
       xlink:href="#linearGradient3787-8-8"
       id="radialGradient3872"
       gradientUnits="userSpaceOnUse"
       gradientTransform="matrix(1,0,0,1.0619468,0,18.145264)"
       cx="-318.88889"
       cy="-292.91666"
       fx="-318.88889"
       fy="-292.91666"
       r="125.55556" /></defs><sodipodi:namedview
     pagecolor="#ffffff"
     bordercolor="#666666"
     borderopacity="1"
     objecttolerance="10"
     gridtolerance="10"
     guidetolerance="10"
     inkscape:pageopacity="0"
     inkscape:pageshadow="2"
     inkscape:window-width="1920"
     inkscape:window-height="1036"
     id="namedview3006"
     showgrid="false"
     inkscape:zoom="1.4"
     inkscape:cx="325.49727"
     inkscape:cy="239.09032"
     inkscape:window-x="0"
     inkscape:window-y="25"
     inkscape:window-maximized="1"
     inkscape:current-layer="g3012" /><g
     id="g3012"
     inkscape:groupmode="layer"
     inkscape:label="ink_ext_XXXXXX"
     transform="matrix(1.25,0,0,-1.25,0,480)"><rect
       style="fill:#b7b7b7;fill-opacity:1;stroke:none"
       id="rect3036"
       width="512"
       height="384"
       x="0"
       y="-384"
       transform="scale(1,-1)" /><g
       id="g3874"
       transform="matrix(0.44444436,0,0,0.44444436,-85.33327,2.8995518e-5)"><path
         transform="matrix(1.0877698,0,0,-1.008,913.29496,91.62002)"
         d="m -34.285713,-337.67856 c 0,59.17337 -44.451728,107.14286 -99.285717,107.14286 -54.83398,0 -99.28571,-47.96949 -99.28571,-107.14286 0,-59.17337 44.45173,-107.14286 99.28571,-107.14286 54.833989,0 99.285717,47.96949 99.285717,107.14286 z"
         sodipodi:ry="107.14286"
         sodipodi:rx="99.285713"
         sodipodi:cy="-337.67856"
         sodipodi:cx="-133.57143"
         id="path3219"
         style="fill:#cdcdcd;fill-opacity:1;fill-rule:nonzero;stroke:none"
         sodipodi:type="arc" /><path
         transform="matrix(0,0.86017696,0.81000003,0,1005.2625,706.30087)"
         d="m -193.33333,-292.91666 c 0,73.63797 -56.21314,133.33333 -125.55556,133.33333 -69.34242,0 -125.55555,-59.69536 -125.55555,-133.33333 0,-73.63796 56.21313,-133.33332 125.55555,-133.33332 69.34242,0 125.55556,59.69536 125.55556,133.33332 z"
         sodipodi:ry="133.33333"
         sodipodi:rx="125.55556"
         sodipodi:cy="-292.91666"
         sodipodi:cx="-318.88889"
         id="path5277-0"
         style="opacity:0.75;fill:url(#radialGradient3872);fill-opacity:1;fill-rule:evenodd;stroke:none"
         sodipodi:type="arc" /><path
         transform="matrix(0.4835821,0,0,-0.49591838,67.88056,296.65561)"
         d="m 1671.1112,-272.91666 c 0,120.27535 -99.9898,217.777775 -223.3334,217.777775 -123.3436,0 -223.3333,-97.502425 -223.3333,-217.777775 0,-120.27534 99.9897,-217.77777 223.3333,-217.77777 123.3436,0 223.3334,97.50243 223.3334,217.77777 z"
         sodipodi:ry="217.77777"
         sodipodi:rx="223.33333"
         sodipodi:cy="-272.91666"
         sodipodi:cx="1447.7778"
         id="path4162"
         style="fill:url(#radialGradient3870);fill-opacity:1;fill-rule:nonzero;stroke:none"
         sodipodi:type="arc" /><path
         transform="matrix(0,-0.53982624,-0.58135134,0,644.3803,326.57142)"
         d="m 4.7634277,-212.64204 c 0,102.60018 -89.5718727,185.774059 -200.0643777,185.774059 -110.4925,0 -200.06438,-83.173879 -200.06438,-185.774059 0,-102.60019 89.57188,-185.77407 200.06438,-185.77407 110.492505,0 200.0643777,83.17388 200.0643777,185.77407 z"
         sodipodi:ry="185.77406"
         sodipodi:rx="200.06438"
         sodipodi:cy="-212.64204"
         sodipodi:cx="-195.30095"
         id="path3806"
         style="fill:url(#linearGradient3868);fill-opacity:1;fill-rule:evenodd;stroke:none"
         sodipodi:type="arc" /><g
         transform="translate(-892,-249.34796)"
         id="g5055"><path
           inkscape:connector-curvature="0"
           d="m 1620.0437,718.63842 0,-74.3463 79.3723,0 0,74.3463 -79.3723,0 z"
           style="fill:#fdd005;fill-opacity:1;fill-rule:nonzero;stroke:none"
           id="path13" /><path
           inkscape:connector-curvature="0"
           d="m 1687.2145,687.75057 c -1.0928,-0.21786 -2.9504,-1.09262 -4.1543,-1.63961 -0.2179,-0.10976 -0.2179,-0.43738 0,-0.43738 0.3291,-0.10976 0.5487,-0.218 0.7651,-0.43737 0.5485,-0.65539 1.2038,-1.20238 1.2038,-2.07714 0,-0.98285 -0.547,-1.31062 -0.4374,-2.18523 0.3278,-1.74951 1.748,-3.49736 1.748,-5.35664 -0.1078,-1.42023 -1.4202,-1.42023 -2.1854,-2.4046 -0.2194,-0.32777 -0.329,-0.65539 -0.329,-1.09277 0,-0.43738 -0.1077,-1.20237 0.329,-1.20237 0.5456,-0.10961 0.6554,0.983 1.2024,0.983 0.765,-0.10824 0.6569,-1.20238 1.3121,-1.20238 l 28.747,0 c -0.1093,0.32914 -0.3276,0.765 -0.5455,0.87476 -1.4219,1.31199 -5.0289,3.06151 -5.6842,5.13712 -1.0942,3.17112 0.3276,7.21411 0.765,10.71299 1.5299,10.16448 0.9845,15.7405 -0.8747,24.15698 -0.9845,4.8095 -1.7495,9.07186 -3.1697,13.7716 -0.2195,0.87476 -1.4204,2.07714 -1.8591,2.84214 -0.3278,0.54699 -0.6554,1.53151 -0.765,2.18674 -0.765,3.60713 -0.436,7.10449 -3.0602,10.166 -0.9843,1.09261 -2.8419,1.20237 -4.0443,1.96737 -2.295,1.20238 -4.5901,2.40475 -6.8867,3.82498 -0.3276,0.21953 -1.3119,0.54714 -1.8576,0.21953 2.6226,-1.85928 4.3722,-4.04451 5.1372,-7.32402 0.3276,-1.52999 0.765,-2.73237 -0.765,-3.60698 -0.4374,-0.21952 -3.2796,-2.07713 -4.5915,-5.24688 -0.3277,-0.65523 -2.1854,-4.91911 -4.3722,-8.96362 -2.6226,1.42175 -5.2468,1.52999 -7.1045,1.52999 -1.9673,0 -5.4662,-0.21785 -7.106,-1.42023 -3.4958,-2.62412 -5.0273,-6.01188 -6.1199,-9.83838 -0.8748,-2.95037 -1.4204,-6.01188 -1.6398,-9.07186 -0.2194,-4.15412 0.2194,-8.7441 0.6554,-12.89837 0.329,-2.73237 0.6552,-5.35649 0.8746,-8.08886 0.5456,-2.95038 0.4374,-5.24689 0.3276,-5.79236 -0.9828,-3.0615 -2.5128,-4.15427 -5.4647,-4.70126 -0.4374,0 -0.6568,-0.218 -0.547,-0.43738 2.7339,0 5.4647,0 8.1986,0 l 0,0 10.0562,0 c 0.8733,0 1.0927,0.43738 1.9674,1.20238 1.2024,1.20238 -0.4374,3.27951 0,6.01188 0.9844,6.77824 3.9348,12.89837 5.355,19.45724 0.2195,0.76499 0.3291,1.74936 0.4389,2.84197 0.5456,-2.62412 1.3106,-5.13712 2.0756,-7.65148 0.765,-2.62261 1.53,-4.04451 2.7339,-4.69974 l 0,0 c -0.1093,0 -0.2195,0 -0.3291,-0.10976 z"
           style="fill:#231f20;fill-opacity:1;fill-rule:nonzero;stroke:none"
           id="path15" /><path
           inkscape:connector-curvature="0"
           d="m 1692.8986,671.02722 c 0.5471,1.85761 0.8747,3.16975 0.2193,5.13712 -0.4387,1.52999 -1.7493,2.73237 -2.2949,4.26236 -0.6568,2.07714 -0.1094,4.37213 -1.2038,6.23125 -0.218,0.43738 -0.765,0.87476 -1.3106,1.20238 -1.3121,0.765 -1.7495,1.20238 -2.295,2.513 -0.2195,0.43738 -0.4389,0.8746 -0.5487,1.31198 -1.2008,3.49737 -2.0756,7.1045 -2.7308,10.60338 -0.3291,-1.85913 -0.5471,-3.60713 -0.8748,-5.46626 -0.547,-2.07561 -1.0941,-4.04435 -1.7493,-6.01172 -1.4204,-4.15276 -2.8422,-8.41664 -3.4989,-12.78876 -0.1078,-0.87461 -0.1078,-1.63976 0,-2.51436 0.1093,-0.765 0.7665,-2.40475 0,-3.27799 -0.765,-0.87476 -0.983,-1.09414 -1.748,-1.20238 -2.5129,0 -5.4663,0 -7.9791,0 0.547,0.21801 1.0926,0.65523 1.4217,1.20238 0.983,2.07561 -1.5315,8.63448 -2.0785,11.03923 -0.436,2.07699 -1.4204,4.04436 -1.748,6.12149 -0.1093,1.42039 -0.3276,5.79236 -0.1093,6.88649 0,0.32777 0.218,0.43738 0.4374,0 0.2194,-1.85913 -0.3276,-6.01173 0.6552,-8.08886 0.2196,-0.54699 1.2039,-0.21938 1.5302,0.218 0.8746,1.09414 1.3135,2.40476 1.7493,3.71674 0.6553,2.29499 1.2039,3.60713 1.53,6.66712 0.3292,2.95174 -0.3261,3.93626 0,6.88648 0.2194,1.20238 -0.1093,2.51452 0.5472,4.48189 0.765,2.29499 1.4217,3.8265 3.0615,5.24673 1.3106,1.31214 3.3876,1.63976 5.2452,1.85928 5.0289,0 4.3736,-5.46626 5.4663,-8.30839 0.3277,-0.983 1.3121,-3.3876 1.8577,-4.37212 0.4374,-0.98285 1.2024,-2.73237 1.7494,-4.37213 0.4374,-1.20237 0.3276,-2.95174 0,-3.60697 -0.3291,-0.54714 0.2194,-0.87476 0.6554,-0.43738 0.547,0.87461 0.547,1.52999 0.8746,2.51436 0.3276,0.983 0.5456,2.51452 0.8747,3.38776 0.5457,1.53151 1.6398,2.95174 1.9674,4.59149 0.3276,1.53 0.1078,3.05999 -0.4374,4.58998 -0.3276,0.54714 -1.53,4.04451 -2.1852,5.02888 -1.5301,1.63975 -2.7339,1.85776 -5.2484,3.82513 -0.4359,0.32899 -0.9828,0.65676 -1.53,0.98437 1.3121,3.05999 3.0615,5.79388 4.2639,8.85386 0.9844,2.51452 2.6226,3.82514 4.4804,5.24688 3.1697,-1.85776 2.9532,-1.96737 3.3891,-5.68426 -0.1093,-1.96737 0.1093,-3.93474 0,-5.79387 0,-0.765 -0.5456,-2.51285 -0.5456,-3.27799 0.1093,-1.20223 0,-1.63961 0.218,-2.95175 0.1078,-0.98436 1.0926,-1.85761 0.8746,-2.84213 -0.6568,-4.37197 -2.5144,-8.41648 -2.6226,-12.7886 -0.1093,-4.26388 0.6553,-10.05624 4.261,-12.89837 0.4387,-0.32761 1.3135,0.21801 1.4217,0.765 0.547,2.51451 -0.218,5.24688 0.1093,7.76125 0.218,1.63975 0.6569,3.49736 1.2024,5.13712 0.4374,1.31213 1.53,4.37212 2.4047,5.35649 0.2194,0.43738 0.765,0.10824 0.5457,-0.21937 -0.1078,0 -1.9659,-4.04451 -2.7309,-7.1045 -0.8747,-3.27935 -1.6397,-8.08886 0.4359,-11.0406 0.6552,-1.09277 2.077,-2.18538 3.06,-3.82513 0.5485,-0.98437 0.8747,-5.3565 0.6567,-6.44911 -0.4374,-3.05999 -4.1526,-7.97925 -7.7612,-8.30687 -1.3107,0 -2.6226,0 -3.9348,0 z"
           style="fill:#ffffff;fill-opacity:1;fill-rule:nonzero;stroke:none"
           id="path17" /><path
           inkscape:connector-curvature="0"
           d="m 1686.4495,684.69058 0,0.21801 c -0.1093,0.10961 -0.4359,0.32762 -0.4359,0.32762 -0.4389,0.43737 -0.2195,1.31198 0.4359,1.42174 1.0941,0.32762 2.295,0 2.6241,-0.98437 0.3276,-0.87475 -0.2194,-1.96737 -0.9845,-2.62275 -0.6553,-0.65676 -1.7494,-0.10961 -2.1853,-0.21938 -0.2193,-0.10976 -0.2193,-0.218 -0.1093,-0.32761 0.4374,-0.21801 1.2024,-0.21801 1.8578,-0.21801 0.4372,0 0.8746,0.21801 1.2024,0.10824 0.2193,-0.10824 0.329,-0.54562 0.329,-0.76499 0,-0.54563 -0.329,-1.09262 -0.329,-1.53 0.1093,-0.32761 0.4372,-0.32761 0.6552,-0.54714 0.9844,-1.52999 0.8748,-2.4046 1.0941,-3.82498 0.2194,-1.74937 1.9674,-2.18674 1.8592,-2.62412 0,-0.10825 -0.1093,-0.21801 -0.3292,-0.10825 -0.5456,0.54563 -1.53,0.54563 -2.295,0.43738 -0.4373,0 -0.6553,-0.65675 -1.2023,-0.76651 -0.218,-0.10825 -0.6568,0 -0.7665,0.32913 -0.3261,0.43738 0.2193,1.20238 -0.1078,1.63976 -0.2179,0.32761 -1.0927,0.43738 -1.0927,1.09261 0,1.74952 -1.2038,3.38776 -1.6397,5.02736 -0.1093,0.43738 -0.1093,0.65675 0,1.09413 0.3276,0.765 0.5456,1.748 0,2.513 -0.2194,0.32913 0.9845,-0.10825 1.4204,0.32913 z"
           style="fill:#ffffff;fill-opacity:1;fill-rule:nonzero;stroke:none"
           id="path19" /><path
           inkscape:connector-curvature="0"
           d="m 1688.7445,746.01115 c 1.8591,-0.98437 4.1541,-4.48174 5.3564,-6.3395 0.5472,-0.765 1.3122,-0.10961 0.9831,0.54562 -1.8563,2.62413 -4.043,4.80951 -6.3395,5.79388 l 0,0 m -9.2899,-28.74696 c 1.4204,-0.32914 3.2795,-1.74952 3.7154,-3.0615 0.4389,-1.31214 0.5471,-2.07714 0,-5.90212 0,-0.21953 0.4389,-0.43738 0.5471,0 0.1078,0.98285 0,0 0.1078,0.43723 0.1093,0.65538 0.5485,0.54562 0.7663,0.218 -0.4373,1.31214 -0.1093,2.51452 1.53,2.40475 0.8748,-0.10976 0.7652,-0.76499 2.1869,-1.09261 0.4359,-0.10976 1.4203,0.21786 1.6398,0.98285 0.5455,1.63976 0,3.06151 -1.3121,4.15412 -0.7666,0.6569 -1.7494,0.98452 -2.7324,0.32777 -0.2194,-0.21801 -0.5472,-0.87324 -0.5472,-1.20238 0.218,-1.42038 -0.5469,-0.983 -1.0926,0 -0.765,1.20238 -3.2793,2.95174 -4.8095,2.73389 l 0,0 m 9.0719,-20.76937 c 0.6567,2.07713 -0.1078,5.13712 -0.547,7.43362 -0.218,0.765 0.765,0.98286 0.9844,0.21786 0.6554,-3.05999 0.5456,-5.35649 -0.4374,-7.65148 l 0,0 m 3.6071,39.35033 c -0.2194,-0.10825 -1.0926,-0.765 -1.6397,-1.09261 1.2023,-0.21801 2.8421,-1.09262 3.6071,-2.51452 0.5471,-1.20237 0.983,-2.95022 1.2024,-4.1526 0,0.765 -0.1093,4.1526 0.2193,4.58998 0.5457,0.65675 1.6398,0.10976 2.4048,-0.21785 0.5456,-0.21953 0.8748,-0.87476 1.4204,-1.20238 0.547,-0.21952 1.0941,-0.32762 1.6396,-0.10976 0.5456,0.10976 1.0941,0.54714 1.3121,1.09261 0.3276,0.98452 -0.6567,4.91927 -2.8421,4.04451 -0.8746,-0.32762 -0.9844,-1.63976 -1.7494,-2.29499 -0.4358,-0.32762 -0.8747,-0.43738 -1.4204,-0.32762 -0.547,-1e-5 -1.2037,0.3276 -1.7493,0.76498 -0.765,0.54547 -1.53,1.20238 -2.4048,1.42023 z"
           style="fill:#f57215;fill-opacity:1;fill-rule:nonzero;stroke:none"
           id="path21" /><path
           inkscape:connector-curvature="0"
           d="m 1687.4338,686.11096 c 0.3277,0 0.765,-0.43738 0.6553,-0.54714 -0.2194,-0.218 -0.3276,0.10976 -0.765,0.10976 -0.3276,0 -0.6553,-0.10976 -0.6553,0.10962 0,0.218 0.3277,0.32776 0.765,0.32776 z"
           style="fill:#231f20;fill-opacity:1;fill-rule:nonzero;stroke:none"
           id="path23" /><path
           inkscape:connector-curvature="0"
           d="m 1607.4959,689.0079 -6.9266,0.71156 c 0.261,1.2127 0.6382,2.16746 1.1312,2.86429 0.4923,0.69532 1.2016,1.29878 2.1283,1.81177 0.6649,0.36769 1.5789,0.65371 2.7427,0.85684 1.1638,0.20161 2.4225,0.30257 3.7761,0.30257 2.1735,0 3.9192,-0.12161 5.2371,-0.36481 1.3181,-0.24306 2.416,-0.75012 3.2952,-1.51967 0.6167,-0.53363 1.1037,-1.28982 1.4603,-2.26675 0.3557,-0.9786 0.5344,-1.91257 0.5344,-2.80054 l 0,-8.33951 c 0,-0.88948 0.056,-1.58495 0.169,-2.08897 0.1123,-0.50403 0.3588,-1.14606 0.7384,-1.92882 l -6.7865,0 c -0.2728,0.48779 -0.4499,0.85989 -0.533,1.11494 -0.084,0.25489 -0.1653,0.65827 -0.2483,1.20526 -0.9518,-0.91621 -1.897,-1.57008 -2.8355,-1.96146 -1.2847,-0.52482 -2.7769,-0.78564 -4.4766,-0.78564 -2.2594,0 -3.974,0.52179 -5.1453,1.56552 -1.1711,1.04373 -1.7568,2.33203 -1.7568,3.86354 0,1.43511 0.4219,2.61532 1.2661,3.54185 0.8444,0.92516 2.4025,1.61303 4.6738,2.06529 2.7228,0.54563 4.4886,0.92805 5.2973,1.14742 0.808,0.21953 1.6642,0.50706 2.5686,0.86292 0,0.87764 -0.1854,1.49447 -0.5546,1.84425 -0.3691,0.35297 -1.0185,0.52786 -1.9481,0.52786 -1.1919,0 -2.0852,-0.18977 -2.6812,-0.56627 -0.4647,-0.29513 -0.8399,-0.84956 -1.126,-1.66344 m 6.3099,-3.79538 c -1.0023,-0.35585 -2.0453,-0.66874 -3.1305,-0.94004 -1.4789,-0.39138 -2.4152,-0.77684 -2.8087,-1.15485 -0.4055,-0.39002 -0.6079,-0.83468 -0.6079,-1.33142 0,-0.56779 0.1994,-1.03326 0.599,-1.39367 0.3995,-0.36025 0.9866,-0.54107 1.7619,-0.54107 0.811,0 1.5649,0.19569 2.2633,0.58556 0.6974,0.39001 1.1926,0.86732 1.4847,1.42933 0.2921,0.56187 0.4382,1.29119 0.4382,2.19267 l 0,1.15349 z"
           style="fill:#231f20;fill-opacity:1;fill-rule:nonzero;stroke:none"
           id="path25" /><path
           inkscape:connector-curvature="0"
           d="m 1625.4409,702.33909 7.2587,0 0,-26.09323 -7.2587,0 0,26.09323 z"
           style="fill:#231f20;fill-opacity:1;fill-rule:nonzero;stroke:none"
           id="path27" /><path
           inkscape:connector-curvature="0"
           d="m 1646.0665,702.33909 0,-7.21122 3.9851,0 0,-5.31353 -3.9851,0 0,-6.67607 c 0,-0.80204 0.077,-1.3343 0.232,-1.59375 0.2379,-0.40171 0.6546,-0.6018 1.2505,-0.6018 0.536,0 1.2861,0.15409 2.2512,0.45955 l 0.5361,-4.99624 c -1.794,-0.39138 -3.4693,-0.58707 -5.0245,-0.58707 -1.8058,0 -3.1363,0.23121 -3.9918,0.69076 -0.8555,0.46258 -1.4878,1.16245 -1.8977,2.10234 -0.4099,0.93988 -0.6146,2.46396 -0.6146,4.56933 l 0,6.63295 -2.6567,0 0,5.31353 2.6567,0 0,3.48112 7.2588,3.7301 z"
           style="fill:#231f20;fill-opacity:1;fill-rule:nonzero;stroke:none"
           id="path29" /><path
           inkscape:connector-curvature="0"
           d="m 1625.4476,672.39113 7.2587,0 0,-26.09323 -7.2587,0 0,26.09323 z"
           style="fill:#231f20;fill-opacity:1;fill-rule:nonzero;stroke:none"
           id="path31" /><path
           inkscape:connector-curvature="0"
           d="m 1637.6284,672.39113 7.2586,0 0,-4.934 -7.2586,0 0,4.934 m 0,-7.21122 7.2586,0 0,-18.88201 -7.2586,0 0,18.88201 z"
           style="fill:#231f20;fill-opacity:1;fill-rule:nonzero;stroke:none"
           id="path33" /><path
           inkscape:connector-curvature="0"
           d="m 1649.4772,665.17991 6.7589,0 0,-3.08807 c 1.0067,1.26158 2.0245,2.16306 3.0549,2.70261 1.0303,0.54274 2.2854,0.81251 3.7657,0.81251 2.0006,0 3.5663,-0.59602 4.6975,-1.78792 1.1304,-1.19054 1.6961,-3.03039 1.6961,-5.5197 l 0,-12.00144 -7.2586,0 0,10.36761 c 0,1.18309 -0.2195,2.02081 -0.6577,2.51147 -0.4387,0.49082 -1.0548,0.73692 -1.8479,0.73692 -0.877,0 -1.5878,-0.33218 -2.1327,-0.99333 -0.5456,-0.66419 -0.8177,-1.85321 -0.8177,-3.57009 l 0,-9.05258 -7.2585,0 0,18.88201 z"
           style="fill:#231f20;fill-opacity:1;fill-rule:nonzero;stroke:none"
           id="path35" /><path
           inkscape:connector-curvature="0"
           d="m 1693.7052,646.2979 -6.7769,0 0,3.05422 c -1.0067,-1.25582 -2.0222,-2.14986 -3.0466,-2.68197 -1.0245,-0.53226 -2.2818,-0.79915 -3.7733,-0.79915 -1.9895,0 -3.55,0.59602 -4.6804,1.7864 -1.1312,1.19054 -1.6961,3.02598 -1.6961,5.5033 l 0,12.01921 7.2587,0 0,-10.38978 c 0,-1.18613 0.2187,-2.02809 0.6576,-2.52635 0.4379,-0.49811 1.054,-0.74724 1.848,-0.74724 0.8643,0 1.5722,0.33218 2.1237,0.99637 0.5508,0.66419 0.8265,1.85609 0.8265,3.576 l 0,9.091 7.2588,0 0,-18.88201 z"
           style="fill:#231f20;fill-opacity:1;fill-rule:nonzero;stroke:none"
           id="path37" /><path
           inkscape:connector-curvature="0"
           d="m 1696.516,665.17991 8.5871,0 2.9651,-5.26313 3.4871,5.26313 7.9703,0 -6.4308,-8.99611 6.9052,-9.8859 -8.4447,0 -3.4871,6.08156 -4.1037,-6.08156 -7.828,0 6.8643,9.8859 -6.4848,8.99611 z"
           style="fill:#231f20;fill-opacity:1;fill-rule:nonzero;stroke:none"
           id="path39" /><path
           inkscape:connector-curvature="0"
           d="m 1607.0571,640 1.5255,2.57372 0.6004,0 1.5508,-2.57372 -0.7049,0 -0.3217,0.55747 -1.702,0 -0.3217,-0.55747 -0.6264,0 m 1.2149,1.03189 1.1802,0 -0.6027,1.06893 -0.5775,-1.06893 z"
           style="fill:#231f20;fill-opacity:1;fill-rule:nonzero;stroke:none"
           id="path41" /><path
           inkscape:connector-curvature="0"
           d="m 1616.8331,640 0,2.57372 0.6405,0 0,-2.08746 2.0214,0 0,-0.48626 -2.6619,0 z"
           style="fill:#231f20;fill-opacity:1;fill-rule:nonzero;stroke:none"
           id="path43" /><path
           inkscape:connector-curvature="0"
           d="m 1626.4298,642.11114 0,-2.11114 -0.6287,0 0,2.11114 -1.2335,0 0,0.46258 3.1075,0 0,-0.46258 -1.2453,0 z"
           style="fill:#231f20;fill-opacity:1;fill-rule:nonzero;stroke:none"
           id="path45" /><path
           inkscape:connector-curvature="0"
           d="m 1638.9442,640 0,2.57372 0.6404,0 0,-2.08746 2.0216,0 0,-0.48626 -2.662,0 z"
           style="fill:#231f20;fill-opacity:1;fill-rule:nonzero;stroke:none"
           id="path47" /><path
           inkscape:connector-curvature="0"
           d="m 1647.3548,640 0,2.57372 0.6287,0 0,-2.57372 -0.6287,0 z"
           style="fill:#231f20;fill-opacity:1;fill-rule:nonzero;stroke:none"
           id="path49" /><path
           inkscape:connector-curvature="0"
           d="m 1654.1805,640 0,2.57372 0.4382,0 2.1831,-1.7108 0,1.7108 0.5693,0 0,-2.57372 -0.4353,0 -2.1741,1.73024 0,-1.73024 -0.5812,0 z"
           style="fill:#231f20;fill-opacity:1;fill-rule:nonzero;stroke:none"
           id="path51" /><path
           inkscape:connector-curvature="0"
           d="m 1664.1908,642.57372 0,-2.08746 1.7791,0 0,2.08746 0.6405,0 0,-1.96433 c 0,-0.23577 -0.047,-0.39594 -0.1412,-0.48187 -0.091,-0.0846 -0.2698,-0.12752 -0.5351,-0.12752 l -1.7079,0 c -0.2618,0 -0.4382,0.043 -0.5293,0.12752 -0.089,0.083 -0.1336,0.24306 -0.1336,0.48187 l 0,1.96433 0.6285,0 z"
           style="fill:#231f20;fill-opacity:1;fill-rule:nonzero;stroke:none"
           id="path53" /><path
           inkscape:connector-curvature="0"
           d="m 1672.2367,640 1.2736,1.31943 -1.2988,1.25429 0.8407,0 0.8658,-0.83756 0.8162,0.83756 0.7249,0 -1.1756,-1.18006 1.4507,-1.39366 -0.8599,0 -0.9866,0.95917 -0.9089,-0.95917 -0.7421,0 z"
           style="fill:#231f20;fill-opacity:1;fill-rule:nonzero;stroke:none"
           id="path55" /><path
           inkscape:connector-curvature="0"
           d="m 1687.9816,642.11114 0,-2.11114 -0.6285,0 0,2.11114 -1.2335,0 0,0.46258 3.1075,0 0,-0.46258 -1.2455,0 z"
           style="fill:#231f20;fill-opacity:1;fill-rule:nonzero;stroke:none"
           id="path57" /><path
           inkscape:connector-curvature="0"
           d="m 1695.4375,640 0,2.57372 2.7635,0 0,-0.46258 -2.123,0 0,-0.55746 1.2372,0 0,-0.45059 -1.2372,0 0,-0.61683 2.1541,0 0,-0.48626 -2.7946,0 z"
           style="fill:#231f20;fill-opacity:1;fill-rule:nonzero;stroke:none"
           id="path59" /><path
           inkscape:connector-curvature="0"
           d="m 1703.3929,640 1.5256,2.57372 0.6005,0 1.5508,-2.57372 -0.7051,0 -0.3217,0.55747 -1.702,0 -0.3217,-0.55747 -0.6264,0 m 1.215,1.03189 1.1801,0 -0.6026,1.06893 -0.5775,-1.06893 z"
           style="fill:#231f20;fill-opacity:1;fill-rule:nonzero;stroke:none"
           id="path61" /><path
           inkscape:connector-curvature="0"
           d="m 1713.1809,640 0,2.57372 0.4981,0 1.261,-1.52847 1.2505,1.52847 0.513,0 0,-2.57372 -0.593,0 0,1.76728 -1.1453,-1.45743 -0.1214,0 -1.1646,1.41431 0,-1.72416 -0.4981,0 z"
           style="fill:#231f20;fill-opacity:1;fill-rule:nonzero;stroke:none"
           id="path63" /></g></g></g></svg>