<?xml version="1.0" encoding="UTF-8" standalone="no"?>
<!-- Created with Inkscape (http://www.inkscape.org/) -->

<svg
   xmlns:osb="http://www.openswatchbook.org/uri/2009/osb"
   xmlns:dc="http://purl.org/dc/elements/1.1/"
   xmlns:cc="http://creativecommons.org/ns#"
   xmlns:rdf="http://www.w3.org/1999/02/22-rdf-syntax-ns#"
   xmlns:svg="http://www.w3.org/2000/svg"
   xmlns="http://www.w3.org/2000/svg"
   xmlns:xlink="http://www.w3.org/1999/xlink"
   xmlns:sodipodi="http://sodipodi.sourceforge.net/DTD/sodipodi-0.dtd"
   xmlns:inkscape="http://www.inkscape.org/namespaces/inkscape"
   id="svg3004"
   version="1.1"
   inkscape:version="0.48.5 r10040"
   width="1024"
   height="768"
   xml:space="preserve"
   sodipodi:docname="arch-grub.svg"
   inkscape:export-filename="cuckoo-light-linux-arch-grub.png"
   inkscape:export-xdpi="90"
   inkscape:export-ydpi="90"><metadata
     id="metadata3010"><rdf:RDF><cc:Work
         rdf:about=""><dc:format>image/svg+xml</dc:format><dc:type
           rdf:resource="http://purl.org/dc/dcmitype/StillImage" /><dc:title /></cc:Work></rdf:RDF></metadata><defs
     id="defs3008"><linearGradient
       inkscape:collect="always"
       id="linearGradient19350"><stop
         style="stop-color:#1793d1;stop-opacity:1;"
         offset="0"
         id="stop19352" /><stop
         style="stop-color:#1793d1;stop-opacity:0;"
         offset="1"
         id="stop19354" /></linearGradient><linearGradient
       id="linearGradient4136"><stop
         style="stop-color:#1793d1;stop-opacity:1;"
         offset="0"
         id="stop4138" /><stop
         style="stop-color:#000000;stop-opacity:0;"
         offset="1"
         id="stop4140" /></linearGradient><linearGradient
       id="linearGradient4164"><stop
         style="stop-color:#1793d1;stop-opacity:1;"
         offset="0"
         id="stop4166" /><stop
         style="stop-color:#a80030;stop-opacity:0;"
         offset="1"
         id="stop4168" /></linearGradient><linearGradient
       inkscape:collect="always"
       id="linearGradient5303"><stop
         style="stop-color:#f26711;stop-opacity:1;"
         offset="0"
         id="stop5305" /><stop
         style="stop-color:#f26711;stop-opacity:0;"
         offset="1"
         id="stop5307" /></linearGradient><linearGradient
       inkscape:collect="always"
       id="linearGradient5267"><stop
         style="stop-color:#666666;stop-opacity:1;"
         offset="0"
         id="stop5269" /><stop
         style="stop-color:#666666;stop-opacity:0;"
         offset="1"
         id="stop5271" /></linearGradient><linearGradient
       id="linearGradient5251"
       osb:paint="solid"><stop
         style="stop-color:#666666;stop-opacity:1;"
         offset="0"
         id="stop5253" /></linearGradient><linearGradient
       inkscape:collect="always"
       xlink:href="#linearGradient5267"
       id="linearGradient5273"
       x1="-395.36533"
       y1="-212.64204"
       x2="4.7634277"
       y2="-212.64204"
       gradientUnits="userSpaceOnUse" /><radialGradient
       inkscape:collect="always"
       xlink:href="#linearGradient5303"
       id="radialGradient5325"
       cx="-163.14774"
       cy="-366.26291"
       fx="-163.14774"
       fy="-366.26291"
       r="144.09399"
       gradientTransform="matrix(1,0,0,0.93388423,0,-24.215756)"
       gradientUnits="userSpaceOnUse" /><radialGradient
       inkscape:collect="always"
       xlink:href="#linearGradient4164-9"
       id="radialGradient4170-9"
       cx="1447.7778"
       cy="-272.91666"
       fx="1447.7778"
       fy="-272.91666"
       r="223.33333"
       gradientTransform="matrix(1,0,0,0.97512437,0,-6.7889738)"
       gradientUnits="userSpaceOnUse" /><linearGradient
       inkscape:collect="always"
       id="linearGradient4164-9"><stop
         style="stop-color:#a80030;stop-opacity:1;"
         offset="0"
         id="stop4166-0" /><stop
         style="stop-color:#a80030;stop-opacity:0;"
         offset="1"
         id="stop4168-2" /></linearGradient><radialGradient
       r="223.33333"
       fy="-272.91666"
       fx="1447.7778"
       cy="-272.91666"
       cx="1447.7778"
       gradientTransform="matrix(1,0,0,0.97512437,0,-6.7889738)"
       gradientUnits="userSpaceOnUse"
       id="radialGradient4206"
       xlink:href="#linearGradient4164-9"
       inkscape:collect="always" /><radialGradient
       inkscape:collect="always"
       xlink:href="#linearGradient19350"
       id="radialGradient19356"
       cx="1447.7778"
       cy="-272.91666"
       fx="1447.7778"
       fy="-272.91666"
       r="223.33333"
       gradientTransform="matrix(1,0,0,0.97512437,0,-6.7889738)"
       gradientUnits="userSpaceOnUse" /><radialGradient
       inkscape:collect="always"
       xlink:href="#linearGradient19350"
       id="radialGradient19376"
       gradientUnits="userSpaceOnUse"
       gradientTransform="matrix(1,0,0,0.97512437,0,-6.7889738)"
       cx="1447.7778"
       cy="-272.91666"
       fx="1447.7778"
       fy="-272.91666"
       r="223.33333" /><linearGradient
       inkscape:collect="always"
       xlink:href="#linearGradient5267"
       id="linearGradient19378"
       gradientUnits="userSpaceOnUse"
       x1="-395.36533"
       y1="-212.64204"
       x2="4.7634277"
       y2="-212.64204" /><radialGradient
       r="125.55556"
       fy="-292.91666"
       fx="-318.88889"
       cy="-292.91666"
       cx="-318.88889"
       gradientTransform="matrix(1,0,0,1.0619468,0,18.145264)"
       gradientUnits="userSpaceOnUse"
       id="radialGradient3812"
       xlink:href="#linearGradient3787-8"
       inkscape:collect="always" /><linearGradient
       inkscape:collect="always"
       id="linearGradient3787-8"><stop
         style="stop-color:#000000;stop-opacity:1;"
         offset="0"
         id="stop3789-9" /><stop
         style="stop-color:#000000;stop-opacity:0;"
         offset="1"
         id="stop3791-4" /></linearGradient><radialGradient
       r="125.55556"
       fy="-292.91666"
       fx="-318.88889"
       cy="-292.91666"
       cx="-318.88889"
       gradientTransform="matrix(1,0,0,1.0619468,0,18.145264)"
       gradientUnits="userSpaceOnUse"
       id="radialGradient6789"
       xlink:href="#linearGradient3787-8"
       inkscape:collect="always" /><linearGradient
       inkscape:collect="always"
       xlink:href="#linearGradient5267"
       id="linearGradient3058"
       gradientUnits="userSpaceOnUse"
       x1="-395.36533"
       y1="-212.64204"
       x2="4.7634277"
       y2="-212.64204" /><radialGradient
       inkscape:collect="always"
       xlink:href="#linearGradient19350"
       id="radialGradient3060"
       gradientUnits="userSpaceOnUse"
       gradientTransform="matrix(1,0,0,0.97512437,0,-6.7889738)"
       cx="1447.7778"
       cy="-272.91666"
       fx="1447.7778"
       fy="-272.91666"
       r="223.33333" /><radialGradient
       inkscape:collect="always"
       xlink:href="#linearGradient3787-8"
       id="radialGradient3062"
       gradientUnits="userSpaceOnUse"
       gradientTransform="matrix(1,0,0,1.0619468,0,18.145264)"
       cx="-318.88889"
       cy="-292.91666"
       fx="-318.88889"
       fy="-292.91666"
       r="125.55556" /><radialGradient
       inkscape:collect="always"
       xlink:href="#linearGradient3787-8"
       id="radialGradient3083"
       gradientUnits="userSpaceOnUse"
       gradientTransform="matrix(1,0,0,1.0619468,0,18.145264)"
       cx="-318.88889"
       cy="-292.91666"
       fx="-318.88889"
       fy="-292.91666"
       r="125.55556" /><radialGradient
       inkscape:collect="always"
       xlink:href="#linearGradient19350"
       id="radialGradient3085"
       gradientUnits="userSpaceOnUse"
       gradientTransform="matrix(1,0,0,0.97512437,0,-6.7889738)"
       cx="1447.7778"
       cy="-272.91666"
       fx="1447.7778"
       fy="-272.91666"
       r="223.33333" /><linearGradient
       inkscape:collect="always"
       xlink:href="#linearGradient5267"
       id="linearGradient3087"
       gradientUnits="userSpaceOnUse"
       x1="-395.36533"
       y1="-212.64204"
       x2="4.7634277"
       y2="-212.64204" /><radialGradient
       inkscape:collect="always"
       xlink:href="#linearGradient3787-8-9"
       id="radialGradient3835"
       gradientUnits="userSpaceOnUse"
       gradientTransform="matrix(1,0,0,1.0619468,0,18.145264)"
       cx="-318.88889"
       cy="-292.91666"
       fx="-318.88889"
       fy="-292.91666"
       r="125.55556" /><linearGradient
       inkscape:collect="always"
       id="linearGradient3787-8-9"><stop
         style="stop-color:#000000;stop-opacity:1;"
         offset="0"
         id="stop3789-9-1" /><stop
         style="stop-color:#000000;stop-opacity:0;"
         offset="1"
         id="stop3791-4-3" /></linearGradient><radialGradient
       inkscape:collect="always"
       xlink:href="#linearGradient19350-5"
       id="radialGradient3833"
       gradientUnits="userSpaceOnUse"
       gradientTransform="matrix(1,0,0,0.97512437,0,-6.7889738)"
       cx="1447.7778"
       cy="-272.91666"
       fx="1447.7778"
       fy="-272.91666"
       r="223.33333" /><linearGradient
       inkscape:collect="always"
       id="linearGradient19350-5"><stop
         style="stop-color:#1793d1;stop-opacity:1;"
         offset="0"
         id="stop19352-4" /><stop
         style="stop-color:#1793d1;stop-opacity:0;"
         offset="1"
         id="stop19354-9" /></linearGradient><linearGradient
       inkscape:collect="always"
       xlink:href="#linearGradient5267-3"
       id="linearGradient3831"
       gradientUnits="userSpaceOnUse"
       x1="-395.36533"
       y1="-212.64204"
       x2="4.7634277"
       y2="-212.64204" /><linearGradient
       id="linearGradient5267-3"><stop
         style="stop-color:#ffffff;stop-opacity:1;"
         offset="0"
         id="stop5269-0" /><stop
         style="stop-color:#666666;stop-opacity:0;"
         offset="1"
         id="stop5271-7" /></linearGradient><linearGradient
       inkscape:collect="always"
       xlink:href="#linearGradient5267-3"
       id="linearGradient3838"
       gradientUnits="userSpaceOnUse"
       x1="-395.36533"
       y1="-212.64204"
       x2="4.7634277"
       y2="-212.64204" /><radialGradient
       inkscape:collect="always"
       xlink:href="#linearGradient19350-5"
       id="radialGradient3840"
       gradientUnits="userSpaceOnUse"
       gradientTransform="matrix(1,0,0,0.97512437,0,-6.7889738)"
       cx="1447.7778"
       cy="-272.91666"
       fx="1447.7778"
       fy="-272.91666"
       r="223.33333" /><radialGradient
       inkscape:collect="always"
       xlink:href="#linearGradient3787-8-9"
       id="radialGradient3842"
       gradientUnits="userSpaceOnUse"
       gradientTransform="matrix(1,0,0,1.0619468,0,18.145264)"
       cx="-318.88889"
       cy="-292.91666"
       fx="-318.88889"
       fy="-292.91666"
       r="125.55556" /><radialGradient
       inkscape:collect="always"
       xlink:href="#linearGradient3787-8-9-0"
       id="radialGradient3842-6"
       gradientUnits="userSpaceOnUse"
       gradientTransform="matrix(1,0,0,1.0619468,0,18.145264)"
       cx="-318.88889"
       cy="-292.91666"
       fx="-318.88889"
       fy="-292.91666"
       r="125.55556" /><linearGradient
       inkscape:collect="always"
       id="linearGradient3787-8-9-0"><stop
         style="stop-color:#000000;stop-opacity:1;"
         offset="0"
         id="stop3789-9-1-0" /><stop
         style="stop-color:#000000;stop-opacity:0;"
         offset="1"
         id="stop3791-4-3-0" /></linearGradient><radialGradient
       inkscape:collect="always"
       xlink:href="#linearGradient19350-5-3"
       id="radialGradient3840-5"
       gradientUnits="userSpaceOnUse"
       gradientTransform="matrix(1,0,0,0.97512437,0,-6.7889738)"
       cx="1447.7778"
       cy="-272.91666"
       fx="1447.7778"
       fy="-272.91666"
       r="223.33333" /><linearGradient
       inkscape:collect="always"
       id="linearGradient19350-5-3"><stop
         style="stop-color:#1793d1;stop-opacity:1;"
         offset="0"
         id="stop19352-4-5" /><stop
         style="stop-color:#1793d1;stop-opacity:0;"
         offset="1"
         id="stop19354-9-0" /></linearGradient><linearGradient
       inkscape:collect="always"
       xlink:href="#linearGradient5267-3-3"
       id="linearGradient3838-1"
       gradientUnits="userSpaceOnUse"
       x1="-395.36533"
       y1="-212.64204"
       x2="4.7634277"
       y2="-212.64204" /><linearGradient
       id="linearGradient5267-3-3"><stop
         style="stop-color:#ffffff;stop-opacity:1;"
         offset="0"
         id="stop5269-0-7" /><stop
         style="stop-color:#666666;stop-opacity:0;"
         offset="1"
         id="stop5271-7-8" /></linearGradient><radialGradient
       inkscape:collect="always"
       xlink:href="#linearGradient3787-8-9-01"
       id="radialGradient3842-9"
       gradientUnits="userSpaceOnUse"
       gradientTransform="matrix(1,0,0,1.0619468,0,18.145264)"
       cx="-318.88889"
       cy="-292.91666"
       fx="-318.88889"
       fy="-292.91666"
       r="125.55556" /><linearGradient
       inkscape:collect="always"
       id="linearGradient3787-8-9-01"><stop
         style="stop-color:#000000;stop-opacity:1;"
         offset="0"
         id="stop3789-9-1-2" /><stop
         style="stop-color:#000000;stop-opacity:0;"
         offset="1"
         id="stop3791-4-3-7" /></linearGradient><radialGradient
       inkscape:collect="always"
       xlink:href="#linearGradient19350-5-4"
       id="radialGradient3840-9"
       gradientUnits="userSpaceOnUse"
       gradientTransform="matrix(1,0,0,0.97512437,0,-6.7889738)"
       cx="1447.7778"
       cy="-272.91666"
       fx="1447.7778"
       fy="-272.91666"
       r="223.33333" /><linearGradient
       inkscape:collect="always"
       id="linearGradient19350-5-4"><stop
         style="stop-color:#1793d1;stop-opacity:1;"
         offset="0"
         id="stop19352-4-9" /><stop
         style="stop-color:#1793d1;stop-opacity:0;"
         offset="1"
         id="stop19354-9-9" /></linearGradient><linearGradient
       inkscape:collect="always"
       xlink:href="#linearGradient5267-3-2"
       id="linearGradient3838-0"
       gradientUnits="userSpaceOnUse"
       x1="-395.36533"
       y1="-212.64204"
       x2="4.7634277"
       y2="-212.64204" /><linearGradient
       id="linearGradient5267-3-2"><stop
         style="stop-color:#ffffff;stop-opacity:1;"
         offset="0"
         id="stop5269-0-4" /><stop
         style="stop-color:#666666;stop-opacity:0;"
         offset="1"
         id="stop5271-7-2" /></linearGradient></defs><sodipodi:namedview
     pagecolor="#ffffff"
     bordercolor="#666666"
     borderopacity="1"
     objecttolerance="10"
     gridtolerance="10"
     guidetolerance="10"
     inkscape:pageopacity="0"
     inkscape:pageshadow="2"
     inkscape:window-width="1920"
     inkscape:window-height="1036"
     id="namedview3006"
     showgrid="false"
     inkscape:zoom="1"
     inkscape:cx="512.92574"
     inkscape:cy="381.11296"
     inkscape:window-x="0"
     inkscape:window-y="25"
     inkscape:window-maximized="1"
     inkscape:current-layer="g3012"
     showguides="true"
     inkscape:guide-bbox="true" /><g
     id="g3012"
     inkscape:groupmode="layer"
     inkscape:label="ink_ext_XXXXXX"
     transform="matrix(1.25,0,0,-1.25,0,768)"><rect
       style="fill:#b7b7b7;fill-opacity:1;stroke:none"
       id="rect3036"
       width="819.20001"
       height="614.40002"
       x="0"
       y="-614.40002"
       transform="scale(1,-1)" /><g
       transform="matrix(0.55555545,0,0,0.55555545,-17.066594,67.200037)"
       id="g3920"><path
         transform="matrix(1.0877698,0,0,-1.008,913.29496,91.62002)"
         d="m -34.285713,-337.67856 c 0,59.17337 -44.451728,107.14286 -99.285717,107.14286 -54.83398,0 -99.28571,-47.96949 -99.28571,-107.14286 0,-59.17337 44.45173,-107.14286 99.28571,-107.14286 54.833989,0 99.285717,47.96949 99.285717,107.14286 z"
         sodipodi:ry="107.14286"
         sodipodi:rx="99.285713"
         sodipodi:cy="-337.67856"
         sodipodi:cx="-133.57143"
         id="path3219-5"
         style="fill:#cdcdcd;fill-opacity:1;fill-rule:nonzero;stroke:none"
         sodipodi:type="arc" /><path
         transform="matrix(0,0.86017696,0.81000003,0,1005.2625,706.30088)"
         d="m -193.33333,-292.91666 c 0,73.63797 -56.21314,133.33333 -125.55556,133.33333 -69.34242,0 -125.55555,-59.69536 -125.55555,-133.33333 0,-73.63796 56.21313,-133.33332 125.55555,-133.33332 69.34242,0 125.55556,59.69536 125.55556,133.33332 z"
         sodipodi:ry="133.33333"
         sodipodi:rx="125.55556"
         sodipodi:cy="-292.91666"
         sodipodi:cx="-318.88889"
         id="path5277-0-5-7"
         style="opacity:0.75;fill:url(#radialGradient3842-9);fill-opacity:1;fill-rule:evenodd;stroke:none"
         sodipodi:type="arc" /><path
         transform="matrix(0.4835821,0,0,-0.49591838,67.88056,296.65562)"
         d="m 1671.1112,-272.91666 c 0,120.27535 -99.9898,217.777775 -223.3334,217.777775 -123.3436,0 -223.3333,-97.502425 -223.3333,-217.777775 0,-120.27534 99.9897,-217.77777 223.3333,-217.77777 123.3436,0 223.3334,97.50243 223.3334,217.77777 z"
         sodipodi:ry="217.77777"
         sodipodi:rx="223.33333"
         sodipodi:cy="-272.91666"
         sodipodi:cx="1447.7778"
         id="path4162-1-1"
         style="fill:url(#radialGradient3840-9);fill-opacity:1;fill-rule:nonzero;stroke:none"
         sodipodi:type="arc" /><path
         transform="matrix(0,-0.53982624,-0.58135134,0,644.3803,326.57142)"
         d="m 4.7634277,-212.64204 c 0,102.60018 -89.5718727,185.774059 -200.0643777,185.774059 -110.4925,0 -200.06438,-83.173879 -200.06438,-185.774059 0,-102.60019 89.57188,-185.77407 200.06438,-185.77407 110.492505,0 200.0643777,83.17388 200.0643777,185.77407 z"
         sodipodi:ry="185.77406"
         sodipodi:rx="200.06438"
         sodipodi:cy="-212.64204"
         sodipodi:cx="-195.30095"
         id="path3806-9-3"
         style="fill:url(#linearGradient3838-0);fill-opacity:1;fill-rule:evenodd;stroke:none"
         sodipodi:type="arc" /><g
         id="g3907"><path
           inkscape:connector-curvature="0"
           d="m 767.13565,508 c -4.27289,-10.47596 -6.85005,-17.32847 -11.60738,-27.49303 2.91688,-3.09183 6.49707,-6.69241 12.31147,-10.75894 -6.25103,2.57223 -10.51494,5.1547 -13.70143,7.83453 C 748.04986,464.87811 738.51108,446.78119 719.15378,412 c 15.21418,8.78342 27.00791,14.19851 37.9992,16.26477 -0.472,2.02993 -0.74027,4.22568 -0.72205,6.51673 l 0.0178,0.48741 c 0.24133,9.74734 5.31191,17.24304 11.31849,16.73411 6.00658,-0.50896 10.67547,-8.82806 10.43405,-18.5754 -0.0453,-1.83415 -0.25236,-3.59857 -0.61378,-5.23507 10.87182,-2.12674 22.53947,-7.52795 37.54782,-16.19255 -2.95938,5.44838 -5.6008,10.3597 -8.12338,15.03724 -3.97333,3.07963 -8.11777,7.08778 -16.57164,11.42685 5.81076,-1.50986 9.97111,-3.25183 13.21404,-5.19894 C 778.00729,481.01565 775.9304,487.36071 767.13538,508 z"
           id="path2518-3-0"
           style="fill:#1793d1;fill-opacity:1;fill-rule:evenodd;stroke:none" /><g
           id="g3896"><path
             inkscape:connector-curvature="0"
             d="m 712.66819,400.03302 c -2.60614,0.004 -4.76897,-0.53012 -5.60526,-0.82165 l -0.86105,-4.64855 c -0.002,-0.0171 4.28529,1.14331 6.17367,1.07491 3.12663,-0.11234 3.41439,-1.19497 3.35978,-2.65631 0.0533,-0.0855 -0.80667,1.32039 -3.51173,1.36755 -3.41261,0.0589 -8.22877,-1.2083 -8.22218,-6.35939 -0.092,-5.7942 4.32818,-7.49869 7.33862,-7.52997 2.70641,0.0493 3.97595,1.02495 4.67105,1.54764 0.91328,0.9549 1.95813,1.91515 2.95459,3.06714 -0.94289,-1.71315 -1.76032,-2.89759 -2.61129,-3.80438 l 0,-0.76538 4.1139,0.69222 0.0281,11.1824 c -0.0417,1.58269 0.90787,7.63905 -7.82824,7.65377 z m -0.59091,-9.73605 c 1.70524,-0.0234 3.66082,-0.8639 3.66368,-2.88705 0.009,-1.84019 -2.30515,-2.82953 -3.81,-2.81389 -1.5055,0.0156 -3.5029,1.18315 -3.51174,2.97709 0.0289,1.60359 1.88365,2.76512 3.65806,2.72385 z"
             id="path2284-3-2"
             style="fill:#323232;fill-opacity:1;fill-rule:evenodd;stroke:none" /><path
             inkscape:connector-curvature="0"
             d="m 723.20921,398.99973 -0.0279,-18.51799 4.79255,0.92336 0.008,10.49946 c 10e-4,1.56334 2.2341,3.39009 5.03577,3.36098 0.59465,1.07586 1.71241,3.82548 1.98474,4.45092 -6.25926,0.015 -6.33895,-1.79907 -7.42759,-2.69146 -0.0114,1.70235 -0.004,2.72428 -0.004,2.72428 l -4.36179,-0.74955 z"
             id="path2286-1-4"
             style="fill:#323232;fill-opacity:1;fill-rule:evenodd;stroke:none" /><path
             inkscape:connector-curvature="0"
             d="m 750.18072,396.56868 c -0.0463,0.0217 -2.49952,2.86957 -7.43162,2.89203 -4.61973,0.0768 -9.80148,-1.71425 -9.88441,-9.46057 0.0404,-6.8107 4.97769,-9.47233 9.91054,-9.52423 5.27893,-0.0548 7.37942,3.30093 7.50541,3.38409 -0.62988,0.54605 -2.9891,2.88379 -2.9891,2.88379 0,0 -1.47355,-2.09822 -4.33258,-2.1249 -2.85971,-0.0272 -5.34548,2.21028 -5.3807,5.33226 -0.0367,3.12202 2.28511,4.81346 5.40217,4.95008 2.69857,5.4e-4 4.25544,-1.74206 4.25544,-1.74206 l 2.94485,3.40951 z"
             id="path2288-5-7"
             style="fill:#323232;fill-opacity:1;fill-rule:evenodd;stroke:none" /><path
             inkscape:connector-curvature="0"
             d="m 756.22157,405.48071 -4.52474,-1.06365 0.0338,-24.12065 4.4572,0.80477 0.0506,11.35123 c 0.01,1.19025 1.72188,3.01813 4.58101,2.96021 2.7337,-0.0284 3.34468,-1.82208 3.33727,-2.04851 l 0.0788,-13.14086 4.3953,0.77663 0.0169,13.93438 c 0.0289,1.34083 -2.93695,4.17257 -7.70443,4.19269 -2.26567,-0.004 -3.5204,-0.51654 -4.15892,-0.89482 -1.09252,-0.84383 -2.34112,-1.65239 -3.56802,-2.68445 1.13422,1.4571 2.08643,2.46455 3.01649,3.21347 l -0.0113,6.71956 z"
             id="path2290-7-0"
             style="fill:#323232;fill-opacity:1;fill-rule:evenodd;stroke:none" /><path
             inkscape:connector-curvature="0"
             d="m 772.46547,404.8548 2.04084,0.51078 0.0966,-24.31769 -2.07349,-0.35307 -0.0639,24.15998 z"
             id="path2292-9-5"
             style="fill:#1793d1;fill-opacity:1;fill-rule:evenodd;stroke:none" /><path
             inkscape:connector-curvature="0"
             d="m 778.01434,397.59706 1.78858,0.79631 0.0153,-17.43664 -1.72738,-0.35704 -0.0765,16.99737 z m -0.42507,6.2877 1.44219,1.17721 1.19801,-1.33296 -1.44279,-1.20837 -1.19741,1.36412 z"
             id="path2294-4-0"
             style="fill:#1793d1;fill-opacity:1;fill-rule:evenodd;stroke:none" /><path
             inkscape:connector-curvature="0"
             d="m 783.16626,397.91472 2.04108,0.41646 0.01,-3.64526 c 3.5e-4,-0.15655 1.12066,4.07223 6.52518,3.9782 5.24742,-0.0292 6.10586,-4.09161 6.07745,-5.00239 l 0.0647,-12.81854 -1.78896,-0.38828 -0.0104,12.66142 c 0.0207,0.36976 -0.81772,3.49654 -4.52591,3.50804 -3.7075,0.0108 -6.27637,-2.69297 -6.27181,-4.42036 l 0.0295,-11.15391 -2.07299,-0.54158 -0.0776,17.4062 z"
             id="path2296-6-1"
             style="fill:#1793d1;fill-opacity:1;fill-rule:evenodd;stroke:none" /><path
             inkscape:connector-curvature="0"
             d="m 815.69401,380.75094 -2.04109,-0.41642 -0.01,3.6452 c -3.5e-4,0.15662 -1.12136,-4.07222 -6.52518,-3.97817 -5.24741,0.0292 -6.10587,4.09159 -6.07745,5.00237 l -0.0647,12.81862 2.16854,0.43786 0.0335,-12.66166 c 9.2e-4,-0.34576 0.41503,-3.54597 4.12321,-3.55738 3.70751,-0.0108 6.30491,2.23255 6.32331,5.61075 l -0.0264,9.98992 2.01842,0.51509 0.0776,-17.40618 z"
             id="path2298-8-3"
             style="fill:#1793d1;fill-opacity:1;fill-rule:evenodd;stroke:none" /><path
             inkscape:connector-curvature="0"
             d="m 819.69408,398.05852 -1.43113,-1.11984 5.48702,-7.1809 -5.85243,-8.29614 1.51834,-1.12673 5.50159,7.70438 5.67804,-7.88699 1.40449,1.12007 -6.08512,8.43278 4.8545,6.81942 -1.49278,1.26225 -4.42217,-6.31026 -5.16035,6.58196 z"
             id="path2300-9-9"
             style="fill:#1793d1;fill-opacity:1;fill-rule:evenodd;stroke:none" /></g></g></g></g></svg>