<?xml version="1.0" encoding="UTF-8" standalone="no"?>
<!-- Created with Inkscape (http://www.inkscape.org/) -->

<svg
   xmlns:osb="http://www.openswatchbook.org/uri/2009/osb"
   xmlns:dc="http://purl.org/dc/elements/1.1/"
   xmlns:cc="http://creativecommons.org/ns#"
   xmlns:rdf="http://www.w3.org/1999/02/22-rdf-syntax-ns#"
   xmlns:svg="http://www.w3.org/2000/svg"
   xmlns="http://www.w3.org/2000/svg"
   xmlns:xlink="http://www.w3.org/1999/xlink"
   xmlns:sodipodi="http://sodipodi.sourceforge.net/DTD/sodipodi-0.dtd"
   xmlns:inkscape="http://www.inkscape.org/namespaces/inkscape"
   id="svg3004"
   version="1.1"
   inkscape:version="0.48.5 r10040"
   width="1280"
   height="720"
   xml:space="preserve"
   sodipodi:docname="opensuse-grub.svg"
   inkscape:export-filename="cuckoo-light-linux-opensuse-grub.png"
   inkscape:export-xdpi="90"
   inkscape:export-ydpi="90"><metadata
     id="metadata3010"><rdf:RDF><cc:Work
         rdf:about=""><dc:format>image/svg+xml</dc:format><dc:type
           rdf:resource="http://purl.org/dc/dcmitype/StillImage" /><dc:title /></cc:Work></rdf:RDF></metadata><defs
     id="defs3008"><linearGradient
       inkscape:collect="always"
       id="linearGradient4028"><stop
         style="stop-color:#73ba25;stop-opacity:1;"
         offset="0"
         id="stop4030" /><stop
         style="stop-color:#73ba25;stop-opacity:0;"
         offset="1"
         id="stop4032" /></linearGradient><linearGradient
       id="linearGradient4164"><stop
         style="stop-color:#a80030;stop-opacity:1;"
         offset="0"
         id="stop4166" /><stop
         style="stop-color:#a80030;stop-opacity:0;"
         offset="1"
         id="stop4168" /></linearGradient><linearGradient
       inkscape:collect="always"
       id="linearGradient5303"><stop
         style="stop-color:#f26711;stop-opacity:1;"
         offset="0"
         id="stop5305" /><stop
         style="stop-color:#f26711;stop-opacity:0;"
         offset="1"
         id="stop5307" /></linearGradient><linearGradient
       inkscape:collect="always"
       id="linearGradient5267"><stop
         style="stop-color:#666666;stop-opacity:1;"
         offset="0"
         id="stop5269" /><stop
         style="stop-color:#666666;stop-opacity:0;"
         offset="1"
         id="stop5271" /></linearGradient><linearGradient
       id="linearGradient5251"
       osb:paint="solid"><stop
         style="stop-color:#666666;stop-opacity:1;"
         offset="0"
         id="stop5253" /></linearGradient><linearGradient
       inkscape:collect="always"
       xlink:href="#linearGradient5267"
       id="linearGradient5273"
       x1="-395.36533"
       y1="-212.64204"
       x2="4.7634277"
       y2="-212.64204"
       gradientUnits="userSpaceOnUse" /><radialGradient
       inkscape:collect="always"
       xlink:href="#linearGradient5303"
       id="radialGradient5325"
       cx="-163.14774"
       cy="-366.26291"
       fx="-163.14774"
       fy="-366.26291"
       r="144.09399"
       gradientTransform="matrix(1,0,0,0.93388423,0,-24.215756)"
       gradientUnits="userSpaceOnUse" /><radialGradient
       inkscape:collect="always"
       xlink:href="#linearGradient4164"
       id="radialGradient4170"
       cx="1447.7778"
       cy="-272.91666"
       fx="1447.7778"
       fy="-272.91666"
       r="223.33333"
       gradientTransform="matrix(1,0,0,0.97512437,0,-6.7889738)"
       gradientUnits="userSpaceOnUse" /><radialGradient
       inkscape:collect="always"
       xlink:href="#linearGradient4164-9"
       id="radialGradient4170-9"
       cx="1447.7778"
       cy="-272.91666"
       fx="1447.7778"
       fy="-272.91666"
       r="223.33333"
       gradientTransform="matrix(1,0,0,0.97512437,0,-6.7889738)"
       gradientUnits="userSpaceOnUse" /><linearGradient
       inkscape:collect="always"
       id="linearGradient4164-9"><stop
         style="stop-color:#a80030;stop-opacity:1;"
         offset="0"
         id="stop4166-0" /><stop
         style="stop-color:#a80030;stop-opacity:0;"
         offset="1"
         id="stop4168-2" /></linearGradient><radialGradient
       r="223.33333"
       fy="-272.91666"
       fx="1447.7778"
       cy="-272.91666"
       cx="1447.7778"
       gradientTransform="matrix(1,0,0,0.97512437,0,-6.7889738)"
       gradientUnits="userSpaceOnUse"
       id="radialGradient4206"
       xlink:href="#linearGradient4164-9"
       inkscape:collect="always" /><radialGradient
       inkscape:collect="always"
       xlink:href="#linearGradient4164"
       id="radialGradient14319"
       gradientUnits="userSpaceOnUse"
       gradientTransform="matrix(1,0,0,0.97512437,0,-6.7889738)"
       cx="1447.7778"
       cy="-272.91666"
       fx="1447.7778"
       fy="-272.91666"
       r="223.33333" /><linearGradient
       inkscape:collect="always"
       xlink:href="#linearGradient5267"
       id="linearGradient14321"
       gradientUnits="userSpaceOnUse"
       x1="-395.36533"
       y1="-212.64204"
       x2="4.7634277"
       y2="-212.64204" /><linearGradient
       inkscape:collect="always"
       xlink:href="#linearGradient5267"
       id="linearGradient14345"
       gradientUnits="userSpaceOnUse"
       x1="-395.36533"
       y1="-212.64204"
       x2="4.7634277"
       y2="-212.64204" /><radialGradient
       inkscape:collect="always"
       xlink:href="#linearGradient4164"
       id="radialGradient14347"
       gradientUnits="userSpaceOnUse"
       gradientTransform="matrix(1,0,0,0.97512437,0,-6.7889738)"
       cx="1447.7778"
       cy="-272.91666"
       fx="1447.7778"
       fy="-272.91666"
       r="223.33333" /><radialGradient
       inkscape:collect="always"
       xlink:href="#linearGradient4164"
       id="radialGradient14931"
       gradientUnits="userSpaceOnUse"
       gradientTransform="matrix(1,0,0,0.97512437,0,-6.7889738)"
       cx="1447.7778"
       cy="-272.91666"
       fx="1447.7778"
       fy="-272.91666"
       r="223.33333" /><linearGradient
       inkscape:collect="always"
       xlink:href="#linearGradient5267"
       id="linearGradient14933"
       gradientUnits="userSpaceOnUse"
       x1="-395.36533"
       y1="-212.64204"
       x2="4.7634277"
       y2="-212.64204" /><radialGradient
       inkscape:collect="always"
       xlink:href="#linearGradient4164"
       id="radialGradient14961"
       gradientUnits="userSpaceOnUse"
       gradientTransform="matrix(1,0,0,0.97512437,0,-6.7889738)"
       cx="1447.7778"
       cy="-272.91666"
       fx="1447.7778"
       fy="-272.91666"
       r="223.33333" /><linearGradient
       inkscape:collect="always"
       xlink:href="#linearGradient5267"
       id="linearGradient14963"
       gradientUnits="userSpaceOnUse"
       x1="-395.36533"
       y1="-212.64204"
       x2="4.7634277"
       y2="-212.64204" /><linearGradient
       inkscape:collect="always"
       xlink:href="#linearGradient5267"
       id="linearGradient14991"
       gradientUnits="userSpaceOnUse"
       x1="-395.36533"
       y1="-212.64204"
       x2="4.7634277"
       y2="-212.64204" /><linearGradient
       inkscape:collect="always"
       xlink:href="#linearGradient5267"
       id="linearGradient15015"
       gradientUnits="userSpaceOnUse"
       x1="-395.36533"
       y1="-212.64204"
       x2="4.7634277"
       y2="-212.64204" /><radialGradient
       r="125.55556"
       fy="-292.91666"
       fx="-318.88889"
       cy="-292.91666"
       cx="-318.88889"
       gradientTransform="matrix(1,0,0,1.0619468,0,18.145264)"
       gradientUnits="userSpaceOnUse"
       id="radialGradient3812"
       xlink:href="#linearGradient3787-8"
       inkscape:collect="always" /><linearGradient
       inkscape:collect="always"
       id="linearGradient3787-8"><stop
         style="stop-color:#000000;stop-opacity:1;"
         offset="0"
         id="stop3789-9" /><stop
         style="stop-color:#000000;stop-opacity:0;"
         offset="1"
         id="stop3791-4" /></linearGradient><linearGradient
       inkscape:collect="always"
       xlink:href="#linearGradient5267"
       id="linearGradient3258"
       gradientUnits="userSpaceOnUse"
       x1="-395.36533"
       y1="-212.64204"
       x2="4.7634277"
       y2="-212.64204" /><radialGradient
       inkscape:collect="always"
       xlink:href="#linearGradient4028"
       id="radialGradient4034"
       cx="1447.7778"
       cy="-272.91666"
       fx="1447.7778"
       fy="-272.91666"
       r="223.33333"
       gradientTransform="matrix(1,0,0,0.97512437,0,-6.7889738)"
       gradientUnits="userSpaceOnUse" /><radialGradient
       inkscape:collect="always"
       xlink:href="#linearGradient3787-8"
       id="radialGradient4036"
       gradientUnits="userSpaceOnUse"
       gradientTransform="matrix(1,0,0,1.0619468,0,18.145264)"
       cx="-318.88889"
       cy="-292.91666"
       fx="-318.88889"
       fy="-292.91666"
       r="125.55556" /><radialGradient
       inkscape:collect="always"
       xlink:href="#linearGradient3787-8"
       id="radialGradient4104"
       gradientUnits="userSpaceOnUse"
       gradientTransform="matrix(1,0,0,1.0619468,0,18.145264)"
       cx="-318.88889"
       cy="-292.91666"
       fx="-318.88889"
       fy="-292.91666"
       r="125.55556" /><radialGradient
       inkscape:collect="always"
       xlink:href="#linearGradient4028"
       id="radialGradient4106"
       gradientUnits="userSpaceOnUse"
       gradientTransform="matrix(1,0,0,0.97512437,0,-6.7889738)"
       cx="1447.7778"
       cy="-272.91666"
       fx="1447.7778"
       fy="-272.91666"
       r="223.33333" /><linearGradient
       inkscape:collect="always"
       xlink:href="#linearGradient5267"
       id="linearGradient4108"
       gradientUnits="userSpaceOnUse"
       x1="-395.36533"
       y1="-212.64204"
       x2="4.7634277"
       y2="-212.64204" /><linearGradient
       inkscape:collect="always"
       xlink:href="#linearGradient5267-6"
       id="linearGradient3070"
       gradientUnits="userSpaceOnUse"
       x1="-395.36533"
       y1="-212.64204"
       x2="4.7634277"
       y2="-212.64204" /><linearGradient
       inkscape:collect="always"
       id="linearGradient5267-6"><stop
         style="stop-color:#666666;stop-opacity:1;"
         offset="0"
         id="stop5269-8" /><stop
         style="stop-color:#666666;stop-opacity:0;"
         offset="1"
         id="stop5271-6" /></linearGradient><radialGradient
       inkscape:collect="always"
       xlink:href="#linearGradient4028-5"
       id="radialGradient3072"
       gradientUnits="userSpaceOnUse"
       gradientTransform="matrix(1,0,0,0.97512437,0,-6.7889738)"
       cx="1447.7778"
       cy="-272.91666"
       fx="1447.7778"
       fy="-272.91666"
       r="223.33333" /><linearGradient
       inkscape:collect="always"
       id="linearGradient4028-5"><stop
         style="stop-color:#73ba25;stop-opacity:1;"
         offset="0"
         id="stop4030-5" /><stop
         style="stop-color:#73ba25;stop-opacity:0;"
         offset="1"
         id="stop4032-1" /></linearGradient><radialGradient
       inkscape:collect="always"
       xlink:href="#linearGradient3787-8-7"
       id="radialGradient3074"
       gradientUnits="userSpaceOnUse"
       gradientTransform="matrix(1,0,0,1.0619468,0,18.145264)"
       cx="-318.88889"
       cy="-292.91666"
       fx="-318.88889"
       fy="-292.91666"
       r="125.55556" /><linearGradient
       inkscape:collect="always"
       id="linearGradient3787-8-7"><stop
         style="stop-color:#000000;stop-opacity:1;"
         offset="0"
         id="stop3789-9-7" /><stop
         style="stop-color:#000000;stop-opacity:0;"
         offset="1"
         id="stop3791-4-9" /></linearGradient><radialGradient
       r="125.55556"
       fy="-292.91666"
       fx="-318.88889"
       cy="-292.91666"
       cx="-318.88889"
       gradientTransform="matrix(1,0,0,1.0619468,0,18.145264)"
       gradientUnits="userSpaceOnUse"
       id="radialGradient3116"
       xlink:href="#linearGradient3787-8-7"
       inkscape:collect="always" /><radialGradient
       inkscape:collect="always"
       xlink:href="#linearGradient3787-8-7"
       id="radialGradient3131"
       gradientUnits="userSpaceOnUse"
       gradientTransform="matrix(1,0,0,1.0619468,0,18.145264)"
       cx="-318.88889"
       cy="-292.91666"
       fx="-318.88889"
       fy="-292.91666"
       r="125.55556" /><radialGradient
       inkscape:collect="always"
       xlink:href="#linearGradient4028-5"
       id="radialGradient3133"
       gradientUnits="userSpaceOnUse"
       gradientTransform="matrix(1,0,0,0.97512437,0,-6.7889738)"
       cx="1447.7778"
       cy="-272.91666"
       fx="1447.7778"
       fy="-272.91666"
       r="223.33333" /><linearGradient
       inkscape:collect="always"
       xlink:href="#linearGradient5267-6"
       id="linearGradient3135"
       gradientUnits="userSpaceOnUse"
       x1="-395.36533"
       y1="-212.64204"
       x2="4.7634277"
       y2="-212.64204" /><radialGradient
       inkscape:collect="always"
       xlink:href="#linearGradient3787-8-4"
       id="radialGradient3841"
       gradientUnits="userSpaceOnUse"
       gradientTransform="matrix(1,0,0,1.0619468,0,18.145264)"
       cx="-318.88889"
       cy="-292.91666"
       fx="-318.88889"
       fy="-292.91666"
       r="125.55556" /><linearGradient
       inkscape:collect="always"
       id="linearGradient3787-8-4"><stop
         style="stop-color:#000000;stop-opacity:1;"
         offset="0"
         id="stop3789-9-8" /><stop
         style="stop-color:#000000;stop-opacity:0;"
         offset="1"
         id="stop3791-4-6" /></linearGradient><radialGradient
       inkscape:collect="always"
       xlink:href="#linearGradient4028-57"
       id="radialGradient3839"
       gradientUnits="userSpaceOnUse"
       gradientTransform="matrix(1,0,0,0.97512437,0,-6.7889738)"
       cx="1447.7778"
       cy="-272.91666"
       fx="1447.7778"
       fy="-272.91666"
       r="223.33333" /><linearGradient
       inkscape:collect="always"
       id="linearGradient4028-57"><stop
         style="stop-color:#73ba25;stop-opacity:1;"
         offset="0"
         id="stop4030-6" /><stop
         style="stop-color:#73ba25;stop-opacity:0;"
         offset="1"
         id="stop4032-9" /></linearGradient><linearGradient
       inkscape:collect="always"
       xlink:href="#linearGradient5267-9"
       id="linearGradient3837"
       gradientUnits="userSpaceOnUse"
       x1="-395.36533"
       y1="-212.64204"
       x2="4.7634277"
       y2="-212.64204" /><linearGradient
       id="linearGradient5267-9"><stop
         style="stop-color:#ffffff;stop-opacity:1;"
         offset="0"
         id="stop5269-4" /><stop
         style="stop-color:#666666;stop-opacity:0;"
         offset="1"
         id="stop5271-7" /></linearGradient><linearGradient
       inkscape:collect="always"
       xlink:href="#linearGradient5267-9"
       id="linearGradient3866"
       gradientUnits="userSpaceOnUse"
       x1="-395.36533"
       y1="-212.64204"
       x2="4.7634277"
       y2="-212.64204" /><radialGradient
       inkscape:collect="always"
       xlink:href="#linearGradient4028-57"
       id="radialGradient3868"
       gradientUnits="userSpaceOnUse"
       gradientTransform="matrix(1,0,0,0.97512437,0,-6.7889738)"
       cx="1447.7778"
       cy="-272.91666"
       fx="1447.7778"
       fy="-272.91666"
       r="223.33333" /><radialGradient
       inkscape:collect="always"
       xlink:href="#linearGradient3787-8-4"
       id="radialGradient3870"
       gradientUnits="userSpaceOnUse"
       gradientTransform="matrix(1,0,0,1.0619468,0,18.145264)"
       cx="-318.88889"
       cy="-292.91666"
       fx="-318.88889"
       fy="-292.91666"
       r="125.55556" /></defs><sodipodi:namedview
     pagecolor="#ffffff"
     bordercolor="#666666"
     borderopacity="1"
     objecttolerance="10"
     gridtolerance="10"
     guidetolerance="10"
     inkscape:pageopacity="0"
     inkscape:pageshadow="2"
     inkscape:window-width="1920"
     inkscape:window-height="1036"
     id="namedview3006"
     showgrid="false"
     inkscape:zoom="1"
     inkscape:cx="636.55855"
     inkscape:cy="362.72903"
     inkscape:window-x="0"
     inkscape:window-y="25"
     inkscape:window-maximized="1"
     inkscape:current-layer="g3012" /><g
     id="g3012"
     inkscape:groupmode="layer"
     inkscape:label="ink_ext_XXXXXX"
     transform="matrix(1.25,0,0,-1.25,0,720)"><rect
       style="fill:#b7b7b7;fill-opacity:1;stroke:none"
       id="rect3036"
       width="1024"
       height="576"
       x="0"
       y="-576"
       transform="scale(1,-1)" /><g
       id="g3872"
       transform="matrix(0.66666654,0,0,0.66666654,8.3963168e-5,4.4300424e-5)"><path
         transform="matrix(1.0877698,0,0,-1.008,913.29496,91.62002)"
         d="m -34.285713,-337.67856 c 0,59.17337 -44.451728,107.14286 -99.285717,107.14286 -54.83398,0 -99.28571,-47.96949 -99.28571,-107.14286 0,-59.17337 44.45173,-107.14286 99.28571,-107.14286 54.833989,0 99.285717,47.96949 99.285717,107.14286 z"
         sodipodi:ry="107.14286"
         sodipodi:rx="99.285713"
         sodipodi:cy="-337.67856"
         sodipodi:cx="-133.57143"
         id="path3219"
         style="fill:#cdcdcd;fill-opacity:1;fill-rule:nonzero;stroke:none"
         sodipodi:type="arc" /><path
         transform="matrix(0,0.86017696,0.81000003,0,1005.2625,706.30088)"
         d="m -193.33333,-292.91666 c 0,73.63797 -56.21314,133.33333 -125.55556,133.33333 -69.34242,0 -125.55555,-59.69536 -125.55555,-133.33333 0,-73.63796 56.21313,-133.33332 125.55555,-133.33332 69.34242,0 125.55556,59.69536 125.55556,133.33332 z"
         sodipodi:ry="133.33333"
         sodipodi:rx="125.55556"
         sodipodi:cy="-292.91666"
         sodipodi:cx="-318.88889"
         id="path5277-0"
         style="opacity:0.75;fill:url(#radialGradient3870);fill-opacity:1;fill-rule:evenodd;stroke:none"
         sodipodi:type="arc" /><path
         transform="matrix(0.4835821,0,0,-0.49591838,67.88056,296.65561)"
         d="m 1671.1112,-272.91666 c 0,120.27535 -99.9898,217.777775 -223.3334,217.777775 -123.3436,0 -223.3333,-97.502425 -223.3333,-217.777775 0,-120.27534 99.9897,-217.77777 223.3333,-217.77777 123.3436,0 223.3334,97.50243 223.3334,217.77777 z"
         sodipodi:ry="217.77777"
         sodipodi:rx="223.33333"
         sodipodi:cy="-272.91666"
         sodipodi:cx="1447.7778"
         id="path4162"
         style="fill:url(#radialGradient3868);fill-opacity:1;fill-rule:nonzero;stroke:none"
         sodipodi:type="arc" /><path
         transform="matrix(0,-0.53982624,-0.58135134,0,644.3803,326.57143)"
         d="m 4.7634277,-212.64204 c 0,102.60018 -89.5718727,185.774059 -200.0643777,185.774059 -110.4925,0 -200.06438,-83.173879 -200.06438,-185.774059 0,-102.60019 89.57188,-185.77407 200.06438,-185.77407 110.492505,0 200.0643777,83.17388 200.0643777,185.77407 z"
         sodipodi:ry="185.77406"
         sodipodi:rx="200.06438"
         sodipodi:cy="-212.64204"
         sodipodi:cx="-195.30095"
         id="path3806"
         style="fill:url(#linearGradient3866);fill-opacity:1;fill-rule:evenodd;stroke:none"
         sodipodi:type="arc" /><g
         transform="matrix(0.94118201,0,0,0.94117893,-769.62213,54.04274)"
         id="g4068"><path
           style="fill:#73ba25"
           inkscape:connector-curvature="0"
           d="m 1700.2629,385.20358 c 0,-0.10402 -0.088,-0.19217 -0.1965,-0.19217 h -0.088 c -0.1041,0 -0.1922,0.0876 -0.1922,0.19217 v 1.63101 h -0.9198 v -1.63101 c 0,-0.10402 -0.093,-0.19217 -0.2026,-0.19217 h -0.082 c -0.104,0 -0.1922,0.0876 -0.1922,0.19217 v 1.63101 h -0.6898 c -0.099,0 -0.1807,0.0712 -0.1807,0.18068 v 0.0931 c 0,0.1095 0.082,0.1752 0.1807,0.1752 h 2.4145 c 0.093,0 0.1588,-0.0334 0.1916,-0.0876 l 0.4544,-0.68438 0.4545,0.68438 c 0.038,0.0493 0.093,0.0876 0.1916,0.0876 h 0.3071 v -2.09693 c 0,-0.0985 -0.093,-0.19163 -0.2025,-0.19163 l -0.027,0.0159 h -0.088 c -0.104,0 -0.1922,0.0876 -0.1922,0.19218 v 1.36875 l -0.3011,-0.4599 c -0.033,-0.0438 -0.093,-0.0657 -0.1478,-0.0657 h -0.033 c -0.055,0 -0.1205,0.0219 -0.1528,0.0657 l -0.3071,0.4599 v -1.36821 z"
           id="path3135" /><path
           style="fill:#73ba25"
           inkscape:connector-curvature="0"
           d="m 1697.0326,369.92828 v -0.44347 c 0,-0.97456 -0.7396,-1.68631 -1.7635,-1.68631 h -13.3201 c -0.9691,0 -1.6918,0.72818 -1.6918,1.68631 v 16.70975 c 0,0.9636 0.7501,1.68631 1.7246,1.68631 l 0.01,-0.0164 h 12.7294 c 1.0238,0 1.7684,-0.70628 1.7684,-1.68028 v -0.44403 c 0,-0.974 -0.7446,-1.68028 -1.7684,-1.68028 0,0 -9.866,0 -10.3532,0 0,-0.43855 0,-3.94201 0,-4.37454 0.4878,0 7.988,0 7.988,0 1.0238,0 1.7684,-0.71777 1.7684,-1.69178 v -0.43855 c 0,-0.98003 -0.7446,-1.68576 -1.7684,-1.68576 0,0 -7.5002,0 -7.988,0 0,-0.43854 0,-3.82703 0,-4.25956 0.4878,0 10.9062,0 10.9062,0 1.0293,-5.5e-4 1.7629,-0.71777 1.7629,-1.68138 z"
           id="path3137" /><path
           style="fill:#ffffff"
           inkscape:connector-curvature="0"
           d="m 1684.9383,439.59241 c 4.2103,-0.14782 7.5123,-3.69563 7.3694,-7.90045 -0.077,-2.0367 -0.9302,-3.92011 -2.42,-5.31077 -1.4892,-1.39612 -3.4273,-2.11883 -5.475,-2.04765 -4.2048,0.1533 -7.5002,3.69564 -7.3633,7.90045 0.071,2.03671 0.9247,3.92559 2.4199,5.31624 1.4887,1.39066 3.4323,2.11336 5.469,2.04218 z m 5.371,-7.74167 c 0.099,2.99483 -2.2453,5.51334 -5.2396,5.61737 -1.4503,0.0547 -2.8306,-0.4599 -3.8872,-1.45088 -1.0573,-0.98551 -1.6759,-2.32689 -1.7197,-3.77777 -0.099,-2.99483 2.2453,-5.51334 5.2346,-5.62284 1.4564,-0.0438 2.8361,0.47085 3.8982,1.45636 1.0567,0.99097 1.6699,2.33235 1.7137,3.77776 z"
           id="path3139" /><path
           style="fill:#73ba25"
           inkscape:connector-curvature="0"
           d="m 1685.0697,437.46811 c 2.9949,-0.10403 5.3382,-2.62254 5.2396,-5.61737 -0.044,-1.44541 -0.657,-2.78679 -1.7137,-3.77776 -1.0621,-0.98551 -2.4418,-1.50016 -3.8982,-1.45636 -2.9893,0.1095 -5.3326,2.62801 -5.2346,5.62284 0.044,1.45088 0.6624,2.79226 1.7197,3.77777 1.0566,0.99098 2.4363,1.50563 3.8872,1.45088 z m 3.296,-4.33074 c 0,0.89243 -1.0791,1.60965 -2.409,1.60965 -1.3299,0 -2.4036,-0.71722 -2.4036,-1.60965 0,-0.88148 1.0732,-1.60418 2.4036,-1.60418 1.3304,0 2.409,0.7227 2.409,1.60418 z"
           id="path3141" /><path
           style="fill:#ffffff"
           inkscape:connector-curvature="0"
           d="m 1685.9567,434.74702 c 1.3304,0 2.409,-0.71722 2.409,-1.60965 0,-0.88148 -1.0791,-1.60418 -2.409,-1.60418 -1.3299,0 -2.4036,0.7227 -2.4036,1.60418 0,0.89243 1.0732,1.60965 2.4036,1.60965 z"
           id="path3143" /><path
           style="fill:#73ba25"
           inkscape:connector-curvature="0"
           d="m 1676.7477,375.51828 v -2.67729 c 0,-3.06656 -1.8287,-5.04249 -4.6811,-5.04249 h -10.8789 c -1.0238,0 -1.763,0.71723 -1.763,1.68631 v 0.44347 c 0,0.96963 0.7392,1.68083 1.763,1.68083 h 10.321 c 1.1223,0 1.1546,1.53848 1.1546,1.70821 v 1.60418 c 0,0.5256 -0.208,1.14428 -1.1546,1.14428 h -7.5616 c -2.1517,0 -4.4835,1.76295 -4.4835,4.60449 v 2.48018 c 0,1.93816 1.8287,4.73042 5.1241,4.73042 v -0.0219 h 8.881 c 1.0348,0 1.8013,-0.72818 1.8013,-1.68083 v -0.44348 c 0,-0.9636 -0.7616,-1.68631 -1.7635,-1.68631 h -8.2454 c -1.084,0 -1.7027,-0.53107 -1.7027,-1.46183 v -1.47278 c 0,-0.60225 0.5037,-1.42843 1.6266,-1.42843 h 7.446 c 2.0526,-5.5e-4 4.1167,-1.29265 4.1167,-4.16703 z"
           id="path3145" /><path
           style="fill:#73ba25"
           inkscape:connector-curvature="0"
           d="m 1654.1414,387.88087 c 0.9915,0 1.7635,-0.77746 1.7635,-1.76789 v -13.15647 c 0,-3.06053 -2.4041,-5.27846 -5.7214,-5.27846 h -6.1485 c -3.3178,0 -5.7208,2.21793 -5.7208,5.27846 v 13.15647 c 0,0.99098 0.7829,1.76789 1.7629,1.76789 h 0.5585 c 0.986,0 1.7684,-0.79388 1.7684,-1.76789 v -12.66974 c 0,-1.01287 0.8158,-1.82865 1.8232,-1.82865 h 5.7542 c 1.002,0 1.8232,0.81578 1.8232,1.82865 v 12.6692 c 0,0.974 0.7939,1.76788 1.7679,1.76788 h 0.012 0.5574 z"
           id="path3147" /><path
           style="fill:#73ba25"
           inkscape:connector-curvature="0"
           d="m 1634.7817,375.51828 v -2.67729 c 0,-3.06656 -1.8396,-5.04249 -4.6812,-5.04249 h -10.8843 c -1.0293,0 -1.7684,0.71723 -1.7684,1.68631 v 0.44347 c 0,0.96963 0.7446,1.68083 1.7684,1.68083 h 10.3204 c 1.1169,0 1.1443,1.53848 1.1443,1.70821 v 1.60418 c 0,0.5256 -0.1971,1.14428 -1.1443,1.14428 h -7.561 c -2.1626,0 -4.484,1.76295 -4.484,4.60449 v 2.48018 c 0,1.93816 1.8232,4.73042 5.1246,4.73042 l 0.011,-0.0219 h 8.886 c 1.0293,0 1.8013,-0.72818 1.8013,-1.68083 v -0.44348 c 0,-0.9636 -0.761,-1.68631 -1.7684,-1.68631 h -8.2454 c -1.0896,0 -1.7082,-0.53107 -1.7082,-1.46183 v -1.47278 c 0,-0.60225 0.5037,-1.42843 1.626,-1.42843 h 7.4406 c 2.0531,-5.5e-4 4.1227,-1.29265 4.1227,-4.16703 z"
           id="path3149" /><path
           style="fill:#73ba25"
           inkscape:connector-curvature="0"
           d="m 1697.1148,421.3825 0.559,0.10403 c 0.1527,-0.12045 0.1308,-0.36683 0.082,-0.58583 -0.1034,-0.50918 -0.3504,-1.43445 -0.5201,-1.87245 l -0.1423,-0.36136 c -0.1966,-0.53655 -0.3942,-1.04572 -0.772,-1.35233 -1.0397,-0.94717 -2.7041,-1.70273 -5.3102,-2.84153 -4.0296,-1.76296 -10.5613,-2.87438 -16.6277,-2.83606 -2.1741,0.0493 -4.2765,0.29018 -6.1216,0.49823 -5.6496,0.64605 -9.734,1.10595 -10.5832,-4.02962 -1.0731,-6.43862 4.9828,-14.25694 5.0431,-14.32757 l -0.01,-0.21407 -0.1965,-0.0493 c 0,0 -9.6525,4.44572 -9.8885,4.57712 l -0.3066,0.21845 -0.2463,0.23597 c -0.7282,0.70026 -2.19,2.27159 -5.1575,5.71045 -5.7542,6.65214 -12.4885,7.52815 -17.6788,6.26342 -1.2648,-0.30113 -2.8744,-1.22641 -3.9201,-2.26666 -2.7102,-2.67181 -2.4036,-8.05375 -2.2503,-10.01381 0.1807,-2.21738 0.2957,-2.38163 0.3449,-2.56231 l -0.033,-0.22447 -0.1916,-0.0219 -0.1095,0.0766 -7.9169,3.87084 -0.3011,1.2921 c -0.2026,0.8541 -0.438,1.80128 -0.887,2.98936 -2.8306,7.46245 -9.1925,13.07434 -16.2006,14.28432 -4.7359,0.81578 -13.37,0.90885 -17.9416,-7.71977 -1.9108,-3.60257 -1.7958,-8.29466 0.3011,-12.24762 2.1353,-4.04659 5.9514,-6.6412 10.4683,-7.13942 4.4785,-0.48783 7.8457,0.5475 9.7345,2.99483 1.9054,2.46923 2.2612,5.8309 0.9089,8.56841 -1.4509,2.93953 -3.6409,4.50046 -6.685,4.75724 -2.3159,0.20805 -4.0351,-0.75555 -4.6538,-1.74106 -0.1806,-0.30715 -0.5091,-0.87655 -0.5146,-1.6863 v -0.0274 c 0,-2.20643 2.0203,-2.80868 2.4309,-2.83661 0.1259,0 0.7336,0.0164 1.5385,0.21901 l 0.3887,0.12537 0.2683,0.0936 0.1971,0.0378 c 1.4673,0.26828 2.8798,-0.59677 3.2905,-2.02575 0.071,-0.26226 0.1095,-0.5256 0.1095,-0.78786 0,-0.94718 -0.4818,-1.82865 -1.2812,-2.36521 l 0.033,0.0115 -0.088,-0.0493 -0.1314,-0.0821 c -0.4216,-0.26827 -0.8103,-0.4161 -1.221,-0.54203 -1.1497,-0.37722 -2.1681,-0.55297 -3.1919,-0.55297 -3.4931,0.005 -8.3604,3.01126 -8.4261,8.656 -0.033,3.18646 1.5659,6.08822 4.3801,7.9552 3.2412,2.14074 8.8421,2.86891 14.0379,-0.31755 6.3948,-3.91464 8.0647,-11.57911 6.3948,-16.8083 -2.4254,-7.57195 -9.2473,-11.61799 -18.2537,-10.81316 -6.3784,0.5694 -12.3024,3.93653 -15.8283,9.0064 -1.5658,2.24531 -2.7265,4.74684 -3.3507,7.24345 -1.4399,5.71044 0.016,11.77676 1.1005,14.465 3.4493,8.5465 10.0521,15.89945 19.606,21.86174 l 0.6023,0.37778 c 20.3233,12.48907 34.7061,11.98536 45.2346,11.61854 12.4179,-0.43253 25.6614,-4.71399 27.4901,-5.32172 0.01,0.41063 0.077,4.11174 0.077,4.11174 l 0.055,0.12592 0.1424,0.0383 c 0.8327,-0.11498 18.6752,-2.76489 26.193,-7.1449 0.9302,-0.5475 1.3901,-1.1169 1.9655,-1.70821 2.0751,-2.1462 4.8235,-11.08691 5.1137,-12.93199 l -0.1095,-0.18615 c -0.1095,-0.0383 -0.3668,-0.22995 -0.7118,-0.4599 -1.752,-1.2264 -5.8528,-4.09531 -11.1088,-3.62446 -4.7249,0.4161 -10.8953,3.12623 -18.3358,8.02637 0.329,-0.77197 1.8779,-4.44024 2.1407,-5.05891 l 0.099,-0.12045 c 1.0791,-0.55846 11.4159,-5.82542 16.546,-5.7214 4.1375,0.0821 8.5558,2.10241 10.3243,3.16456 z m -4.8071,10.30946 c 0.1429,4.20482 -3.1591,7.75263 -7.3694,7.90045 -2.0367,0.0712 -3.9803,-0.65152 -5.469,-2.04218 -1.4946,-1.39065 -2.3487,-3.27953 -2.4199,-5.31624 -0.1369,-4.20481 3.1591,-7.74715 7.3633,-7.90045 2.0477,-0.0712 3.9858,0.65153 5.475,2.04765 1.4893,1.39066 2.3434,3.27407 2.42,5.31077 z"
           id="path3151" /><path
           style="fill:#ffffff;fill-opacity:1"
           inkscape:connector-curvature="0"
           d="m 1607.4997,379.24676 c 0.7117,0.33891 1.5987,0.75556 2.7703,0.75556 h 0.3614 c 2.0476,0 3.3726,-1.22093 3.3726,-3.09886 v -8.22348 c 0,-0.49768 -0.4052,-0.90283 -0.8924,-0.90283 h -0.3504 c -0.4983,0 -0.8925,0.40515 -0.8925,0.90283 v 7.92782 c 0,0.74461 -0.6077,1.35233 -1.3468,1.35233 h -2.973 c -0.7446,0 -1.3468,-0.60718 -1.3468,-1.35233 v -7.92782 c 0,-0.49768 -0.4052,-0.90283 -0.8924,-0.90283 h -0.3504 c -0.4983,0 -0.8925,0.40515 -0.8925,0.90283 v 10.47918 c 0,0.44841 0.3012,0.76596 0.7173,0.76596 h 0.3449 c 0.3285,0 0.5694,-0.14235 0.7008,-0.42158 l 0.2464,-0.44895 c 0.104,-0.18615 0.1587,-0.19655 0.2956,-0.19655 0.3066,0 0.6844,0.18615 1.1279,0.38872 z"
           id="path3153" /><path
           style="fill:#ffffff;fill-opacity:1"
           inkscape:connector-curvature="0"
           d="M 1601.6031,377.01843 V 374.593 c 0,-1.03533 -0.6023,-1.64853 -1.5987,-1.64853 0,0 -5.9459,0 -6.2251,0 0,-0.25185 0,-1.82866 0,-1.82866 0,-0.90283 0.5092,-1.37423 1.4782,-1.37423 h 3.4493 c 0.5146,0 0.8924,-0.35587 0.8924,-0.84315 v -0.27375 c 0,-0.49275 -0.3778,-0.84863 -0.8924,-0.84863 h -4.2048 c -1.5549,0 -2.8689,1.37971 -2.8689,2.99976 v 6.25905 c 0,1.5987 1.3523,2.89026 3.0167,2.89026 l 0.01,-0.0109 h 3.9256 c 1.6644,5.5e-4 3.0222,-1.30251 3.0222,-2.89574 z m -2.1572,-2.21191 c 0,0.25185 0,1.94363 0,1.94363 0,0.67891 -0.5256,1.20451 -1.199,1.20451 h -3.2741 c -0.6789,0 -1.199,-0.53655 -1.199,-1.20451 0,0 0,-1.69178 0,-1.94363 0.2628,0 5.4093,0 5.6721,0 z"
           id="path3155" /><path
           style="fill:#ffffff;fill-opacity:1"
           inkscape:connector-curvature="0"
           d="m 1580.7925,371.09994 c 0,-0.51411 0.2847,-0.95813 0.7063,-1.18808 l -0.5037,-1.11088 c -0.093,0 -0.1971,-0.1648 -0.1971,-0.31756 v -5.30529 c 0,-0.48727 -0.3997,-0.89243 -0.8924,-0.89243 h -0.3504 c -0.5037,0 -0.8924,0.39968 -0.8924,0.89243 v 15.98158 c 0,0.4265 0.3175,0.76596 0.6953,0.76596 h 0.3997 c 0.3394,0 0.6132,-0.26226 0.6734,-0.39913 l 0.2628,-0.52013 c 0.066,-0.0931 0.1807,-0.14783 0.3011,-0.14783 l 0.4982,-1.0731 c -0.4215,-0.22448 -0.7008,-0.6685 -0.7008,-1.18863 v -5.49691 z"
           id="path3157" /><path
           style="fill:#ffffff;fill-opacity:1"
           inkscape:connector-curvature="0"
           d="m 1585.2382,379.99684 c 2.0532,0 3.3727,-1.22038 3.3727,-3.09831 v -6.09972 c 0,-1.91023 -1.2921,-3.09284 -3.3727,-3.09284 h -0.3668 c -1.1771,0 -2.0641,0.40461 -2.7703,0.72818 -0.438,0.20203 -0.8103,0.36683 -1.106,0.36683 l 0.5037,1.11088 c 0.1916,-0.10348 0.4106,-0.16425 0.6406,-0.16425 h 2.9729 c 0.7501,0 1.3469,0.60772 1.3469,1.35233 v 5.49691 c 0,0.7561 -0.5913,1.34686 -1.3469,1.34686 h -2.9729 c -0.2354,0 -0.4544,-0.0597 -0.6461,-0.15823 l -0.4982,1.0731 c 0.2957,0 0.668,0.17466 1.095,0.38271 0.7172,0.33945 1.5987,0.76157 2.7758,0.76157 v -0.006 h 0.3723 z"
           id="path3159" /><path
           style="fill:#ffffff;fill-opacity:1"
           inkscape:connector-curvature="0"
           d="m 1575.6241,377.03486 v -6.30777 c 0,-1.62061 -1.314,-2.94009 -2.9236,-2.94009 h -4.0735 c -1.6041,0 -2.9127,1.31948 -2.9127,2.94009 v 6.30777 c 0,1.5987 1.3524,2.89026 3.0168,2.89026 h 3.8763 c 1.6644,5.5e-4 3.0167,-1.29703 3.0167,-2.89026 z m -2.1462,-6.06085 v 5.74877 c 0,0.66795 -0.5639,1.23188 -1.2264,1.23188 h -3.1755 c -0.6734,0 -1.2264,-0.55298 -1.2264,-1.23188 v -5.74877 c 0,-0.68985 0.5256,-1.2264 1.199,-1.2264 h 3.2029 c 0.6789,0 1.2264,0.55297 1.2264,1.2264 z"
           id="path3161" /></g></g></g></svg>